<svg id="Layer_1" data-name="Layer 1" xmlns="http://www.w3.org/2000/svg" viewBox="0 0 299.32 298.95"><defs><style>.cls-1{fill:none;stroke:#231f20;}.cls-2{fill:#231f20;}.cls-3{fill:#fff;}</style></defs><path class="cls-1" d="M461.56,222.09a6.33,6.33,0,0,0-3.25-8.34,7.4,7.4,0,0,0-1-.33,6.33,6.33,0,0,0-3.81-10.93,6.93,6.93,0,0,0-1,0,6.33,6.33,0,0,0-7.15-9.1,5.3,5.3,0,0,0-1,.34,6.32,6.32,0,0,0-9.71-6.29,7.28,7.28,0,0,0-.81.63,6.33,6.33,0,0,0-11.23-2.79,6.68,6.68,0,0,0-.55.87,6.33,6.33,0,0,0-11.53,1,7,7,0,0,0-.25,1,6.32,6.32,0,0,0-10.57,4.69,5.69,5.69,0,0,0,.09,1,6.33,6.33,0,0,0-8.48,7.87,5.28,5.28,0,0,0,.42.94A6.31,6.31,0,0,0,387,213.63a6.33,6.33,0,0,0-1.86,11.42,6.19,6.19,0,0,0,.91.49,6.32,6.32,0,0,0,1.95,11.4,6,6,0,0,0,1,.17,6.32,6.32,0,0,0,5.55,10.15,5.78,5.78,0,0,0,1-.18,6.32,6.32,0,0,0,8.54,7.8,6.46,6.46,0,0,0,.9-.49,6.33,6.33,0,0,0,10.62,4.6,5.51,5.51,0,0,0,.69-.76,6.32,6.32,0,0,0,11.54.91,7,7,0,0,0,.4-.94,6.26,6.26,0,0,0,3.92,2.31,6.33,6.33,0,0,0,7.29-5.2,5.92,5.92,0,0,0,.08-1,6.31,6.31,0,0,0,9.4-7.37,6.29,6.29,0,0,0,6.5-10,6.33,6.33,0,0,0,3.71-11,6.07,6.07,0,0,0-.81-.63A6.27,6.27,0,0,0,461.56,222.09Zm-19.63,20.62a6.34,6.34,0,0,0-5.29,6.22,6.32,6.32,0,0,0-9.38,3.26,6.34,6.34,0,0,0-9.94,0,6.32,6.32,0,0,0-9.41-3.2,6.25,6.25,0,0,0-.53-2.48,6.34,6.34,0,0,0-7.33-3.6,6,6,0,0,0,.3-2.52,6.32,6.32,0,0,0-5.75-5.78,6.44,6.44,0,0,0,1.1-2.28,6.33,6.33,0,0,0-3.57-7.34,6.23,6.23,0,0,0,1.78-1.8,6.34,6.34,0,0,0-1-8.1,6.53,6.53,0,0,0,2.27-1.13,6.33,6.33,0,0,0,1.69-8,6.4,6.4,0,0,0,2.51-.33,6.32,6.32,0,0,0,4.19-7,6.33,6.33,0,0,0,8.73-4.75,6.27,6.27,0,0,0,2.18,1.29,6.34,6.34,0,0,0,7.61-3,6.18,6.18,0,0,0,1.65,1.93,6.35,6.35,0,0,0,8.16-.32,6.32,6.32,0,0,0,8.75,4.7,6.21,6.21,0,0,0,.12,2.53,6.32,6.32,0,0,0,6.63,4.76,6.18,6.18,0,0,0-.71,2.43,6.32,6.32,0,0,0,4.73,6.65,6.32,6.32,0,0,0,.85,9.9,6.33,6.33,0,0,0-2.41,9.64,6.33,6.33,0,0,0-5.41,8.33A6.49,6.49,0,0,0,441.93,242.71Z" transform="translate(-271.48 -148.25)"/><polygon class="cls-1" points="151.21 53.39 152.43 55.85 155.13 56.24 153.17 58.15 153.64 60.85 151.21 59.58 148.79 60.85 149.25 58.15 147.29 56.24 150 55.85 151.21 53.39"/><polygon class="cls-1" points="151.21 86.33 152.43 88.78 155.13 89.18 153.17 91.09 153.64 93.78 151.21 92.51 148.79 93.78 149.25 91.09 147.29 89.18 150 88.78 151.21 86.33"/><polygon class="cls-1" points="137.46 61.74 138.67 64.2 141.38 64.59 139.42 66.5 139.88 69.2 137.46 67.92 135.04 69.2 135.5 66.5 133.54 64.59 136.25 64.2 137.46 61.74"/><polygon class="cls-1" points="146.79 61.35 148 63.81 150.71 64.2 148.75 66.11 149.22 68.81 146.79 67.54 144.37 68.81 144.84 66.11 142.88 64.2 145.58 63.81 146.79 61.35"/><polygon class="cls-1" points="156.39 61.35 157.6 63.81 160.31 64.2 158.35 66.11 158.82 68.81 156.39 67.54 153.97 68.81 154.44 66.11 152.47 64.2 155.18 63.81 156.39 61.35"/><polygon class="cls-1" points="165.67 61.74 166.88 64.2 169.59 64.59 167.63 66.5 168.09 69.2 165.67 67.92 163.25 69.2 163.71 66.5 161.75 64.59 164.46 64.2 165.67 61.74"/><polygon class="cls-1" points="137.46 78.03 138.67 80.48 141.38 80.88 139.42 82.79 139.88 85.48 137.46 84.21 135.04 85.48 135.5 82.79 133.54 80.88 136.25 80.48 137.46 78.03"/><polygon class="cls-1" points="146.79 77.64 148 80.1 150.71 80.49 148.75 82.4 149.22 85.1 146.79 83.82 144.37 85.1 144.84 82.4 142.88 80.49 145.58 80.1 146.79 77.64"/><polygon class="cls-1" points="156.39 77.64 157.6 80.1 160.31 80.49 158.35 82.4 158.82 85.1 156.39 83.82 153.97 85.1 154.44 82.4 152.47 80.49 155.18 80.1 156.39 77.64"/><polygon class="cls-1" points="165.67 78.03 166.88 80.48 169.59 80.88 167.63 82.79 168.09 85.48 165.67 84.21 163.25 85.48 163.71 82.79 161.75 80.88 164.46 80.48 165.67 78.03"/><polygon class="cls-1" points="141.78 69.8 142.99 72.25 145.69 72.64 143.74 74.56 144.2 77.25 141.78 75.98 139.35 77.25 139.82 74.56 137.86 72.64 140.56 72.25 141.78 69.8"/><polygon class="cls-1" points="151.37 69.8 152.59 72.25 155.29 72.64 153.34 74.56 153.8 77.25 151.37 75.98 148.95 77.25 149.42 74.56 147.46 72.64 150.16 72.25 151.37 69.8"/><polygon class="cls-1" points="160.65 70.19 161.86 72.64 164.57 73.03 162.61 74.94 163.07 77.64 160.65 76.37 158.23 77.64 158.69 74.94 156.73 73.03 159.44 72.64 160.65 70.19"/><line class="cls-1" x1="150.46" y1="44.27" x2="150.46" y2="53.89"/><line class="cls-1" x1="143.47" y1="47.09" x2="146.31" y2="59.81"/><line class="cls-1" x1="137.39" y1="50.46" x2="144.17" y2="62.8"/><line class="cls-1" x1="131.78" y1="54.27" x2="137.17" y2="60.46"/><line class="cls-1" x1="126" y1="58.61" x2="134.2" y2="64.18"/><line class="cls-1" x1="123.54" y1="65.61" x2="134.47" y2="69.2"/><line class="cls-1" x1="123.54" y1="72.72" x2="137.6" y2="73.61"/><line class="cls-1" x1="124.03" y1="79.53" x2="137.87" y2="76.89"/><line class="cls-1" x1="124.8" y1="86.78" x2="133.4" y2="82.46"/><line class="cls-1" x1="128.89" y1="92.59" x2="136.03" y2="86.43"/><line class="cls-1" x1="134.92" y1="96.34" x2="143.2" y2="84.95"/><line class="cls-1" x1="140.93" y1="99.57" x2="146.11" y2="86.48"/><line class="cls-1" x1="147.29" y1="102.62" x2="148.54" y2="93.98"/><line class="cls-1" x1="154.72" y1="102.89" x2="153.37" y2="94.25"/><line class="cls-1" x1="160.96" y1="99.39" x2="155.78" y2="86.3"/><line class="cls-1" x1="166.91" y1="96.05" x2="161.88" y2="89.19"/><line class="cls-1" x1="172.67" y1="92.03" x2="164.39" y2="85.1"/><line class="cls-1" x1="177.31" y1="86.42" x2="168.92" y2="82.37"/><line class="cls-1" x1="177.85" y1="79.04" x2="163.65" y2="76.4"/><line class="cls-1" x1="177.85" y1="72.23" x2="165.22" y2="73.01"/><line class="cls-1" x1="177.34" y1="65.3" x2="168.37" y2="67.84"/><line class="cls-1" x1="175.63" y1="58.26" x2="167.04" y2="63.13"/><line class="cls-1" x1="169.59" y1="53.73" x2="163.16" y2="59.96"/><line class="cls-1" x1="163.6" y1="50.22" x2="157.27" y2="61.74"/><line class="cls-1" x1="157.61" y1="47.09" x2="154.8" y2="55.57"/><path class="cls-2" d="M481.45,365.39a78.93,78.93,0,0,1-8.57.88c-1.31,1.62-11.25,1.93-11.69.68,0,0-5.25.32-5.87-1,0,0-1.69,1-6.19-.68s-8.69-6.63-8.69-6.63h-4.81c.5.25.75,1.81,1.38,2.31s2.37,2.57.18,3.5c2.82,1.19,9.25,8.88,10.44,11.07s4,6.43,4,6.43,4,4.94,1.94,5.32c-3.44.5-6.44-3.13-7.38-3.94s-2.38-1.5-2.18-.69c.87,2.13,5.06,10.69,3.75,11.44-3.38.94-7.36-5.11-7.94-5.4s.08,2.92.79,5.92.62,4.67-.33,4.67c-4.46,0-5.59-6.75-6.34-6.92s-.21,7.37-.21,8.71.46,2.66-1.79,2.75-3.5-3.79-3.71-4.59-1.12-2-1.45-.54c.41,2.58-.88,4.79-1.71,7.17s-1.75,2.37-1.75,2.37h-.25s-.92,0-1.75-2.37-2.13-4.59-1.71-7.17c-.33-1.46-1.25-.25-1.46.54s-1.46,4.67-3.71,4.59-1.79-1.42-1.79-2.75.54-8.88-.21-8.71-1.87,6.87-6.33,6.92c-1,0-1-1.67-.33-4.67s1.37-6.21.79-5.92-4.56,6.34-7.94,5.4c-1.31-.75,2.88-9.31,3.75-11.44.2-.81-1.25-.12-2.19.69s-3.93,4.44-7.37,3.94c-2.06-.38,1.94-5.32,1.94-5.32s2.81-4.25,4-6.43,7.62-9.88,10.43-11.07c-2.18-.93-.43-3,.19-3.5s.88-2.06,1.38-2.31h-4.82s-4.18,4.94-8.68,6.63-6.19.68-6.19.68c-.63,1.32-5.88,1-5.88,1-.43,1.25-10.37.94-11.68-.68h-8.75V364.7h7.93a3.7,3.7,0,0,1,2-2.68c-3.18-.25-4.06-1.13-4.06-1.69h-7.37a5.31,5.31,0,0,0,.1,3c.83,1.79.46,5.21.46,5.21s2.71-1.17,8.12,15.66c1.84,5.92,2.75,9.5,1.75,9.84s-2.75-1.17-4.91-2.59-5.42-2.33-3.92-5.83c0-2.67-1-13-2.92-12.75-1.16.67-1.75,1.83-2.66,2.25s-5.09.08-6.09-1.5a3.15,3.15,0,0,1-.16-3.08s-2.75,1-4-.92a4.71,4.71,0,0,1,0-2.83,3.15,3.15,0,0,1-3-3.59c.16-3.5,2.33-2,2.41-3.66s-3.25-2.42-3.25-1.5.75,12.33-4.08,16.75c-3.75,3.41-3.92,3.33-3.92,2s-2.5-6-1.33-7.84c-3.75,2.17-5.58,2.5-6.08,1.34s1-7.5,3.83-9.59c-4.17.75-10.83,1.25-10.83-.5s3.08-4.66,3.08-4.66c-5.58-.42-7.08-2.92-6.58-4.75.46-.68,3.5-.42,3.5-.42s-2.84-2.17-1.34-4.92c-4.25-2.58-3.66-3.58-5-3.58s-3.83,0-3.58-1.17,1.83-2,3.08-2.25-1-2-1-2-3.5-3-3.41-4.91,7.58-1.09,7.58-1.09,1.17-2.58,3-2.5c-1.17-1-9.42-3.08-11.33-9.33s-1.09-6.83.25-5.92,2.5,3.67,5.33,4.17,6.25,4.5,6.25,4.5-3.83-5.12-4.75-9.52,2.21-11.67,2.21-11.67a7.92,7.92,0,0,1,4.19,4.44c.75,2.5,1.43,5.63,1.93,5.63s5.25-7,6.57-7.07.81,7.44,0,9.69-2.57,5-1.69,4.75,4.81-3.12,5.06-2.25,1.56,7.94-5.25,15.38c-.37.68,2-.75,2.5,0a6.1,6.1,0,0,1,1.19,3.62c-.19,1.25-2.81,1.38-3.44,1.06s-.94,1.25-.12,1.32,2.56-1.07,3.37.5c1.38-1.82,1.31-6.07,7.06-10.75,1.07-1.07,1.25,1.31,1.5,3.37a72.47,72.47,0,0,1,.82,7.38c4.12-5.57,5.87-7.75,7.25-7.63a45.77,45.77,0,0,1,1,9.19c6.06-3,9.37-4.56,9.75-4-1.5,3.75-3,10.44-5.88,12.5-2.06,1.19-2.69,1.06-2.69,1.06s-1.5,2.38-.81,3.25.56,1.81-.12,1.81-2.75-.25-2.69.57.19,1.87,1.5,1.87,1.62-.75,4.25-1c2.37-2.37,3.44-4.06,5.31-3.44s3.44,1.32,3.38,3.25,0,4.07,0,4.07h8s1.87-2.25,4.06-2.32c-.44-2.56,2.44-5.18,6.12-6.81-.12-2.31,5.44-6.19,8.13-7.37s3.25-2.32,4.5-2.32,2.5.25,1.56-.68a11.25,11.25,0,0,0-2.19-1.63c-.93.94-2.06,2.25-4.68,1.44a3.24,3.24,0,0,1-2.44-3.25c-1.31.87-4.63,1.87-5.69.75s-1.06-2.81-.81-2.94c-1.81.69-4.75,1-5.69-.19s-.31-3.43-.31-3.43-4.63,1.18-5.88-.07-.18-3.5-.18-3.5-5.19.57-5.75-.81.93-3.81.93-3.81-4.42.81-5.3-.44.62-3.87.62-3.87-7.19,1.12-3.69-6.13c-7.13-1-5.75-4.12-2.38-6-6.5-.87-6.5-3.25-3.25-5.19-4.43-1.93-5.87-3.75-2.06-7.18-5.25-1.44-4.87-3.82-1.75-6.38-3.44-2.06-2.12-5.87,1.06-6-4.12-1.94-5.62-4.62-.68-7.12-3.75-3.13-3.19-5.5-.07-6.57-7-3.06-10.93-7.56-3.5-9.62-10.31-5.5-10.12-9.63-5.25-10.94-9.06-6.62-11.68-7.44-12.25-9.81s1.13-3.5,5.44-2.31,23.69,9.93,25.69,11.37c-1.5-1.69.44-3.5-.63-5.87-2.43-1.63-8-6-7.5-8.69s3.57-2.81,3.82-6.44,1-9.75,5.37-9.06S361,221,361,221a18.42,18.42,0,0,1-1.5,3.56c-.88,1.44-.94,2,1.75,3.25s8.5,3.94,8.5,5.25.56,4.25.06,5.12-1.31,1.94.62,2.38,19.92,5.73,30.25,17.81c5.09,6.08,4.42,7.67,2.25,9s-5.5,3.17-4,5.67c1.09,1.33,1.42,1.66,1.25,3.16s-.41,2.42.67,2.25c.08-2.75-.92-4.66,2.83-7.75,3.09-3.66,5-6.83,19.38-6.83h.25c11.29,1.42,13.46,1.83,15.63,5.08-1.84,3.84-1.59,8.5-1.5,11.25,1.08.17,6.83,10.17,6.66,8.67-1-3.92,4.13-13.17,5.21-14.5,1.5-2.5-3.71-5.67-5.88-7s-2.83-2.92,2.25-9C456,246.31,474,241,475.94,240.58s1.13-1.5.63-2.38.06-3.81.06-5.12,5.81-4,8.5-5.25,2.63-1.81,1.75-3.25a18.42,18.42,0,0,1-1.5-3.56s-.75-4.75,3.63-5.44,5.12,5.44,5.37,9.06,3.31,3.75,3.81,6.44-5.06,7.06-7.5,8.69c-1.06,2.37.88,4.18-.62,5.87,2-1.44,21.37-10.19,25.69-11.37s6-.07,5.43,2.31-3.18,3.19-12.25,9.81c4.88,1.31,5.07,5.44-5.25,10.94,7.44,2.06,3.5,6.56-3.5,9.62,3.13,1.07,3.69,3.44-.06,6.57,4.94,2.5,3.44,5.18-.69,7.12,3.19.13,4.5,3.94,1.07,6,3.12,2.56,3.5,4.94-1.75,6.38,3.81,3.43,2.37,5.25-2.07,7.18,3.25,1.94,3.25,4.32-3.25,5.19,3.38,1.88,4.75,5-2.37,6,3.5,7.25-3.69,6.13-3.69,6.13s1.5,2.62.62,3.87-5.31.44-5.31.44,1.5,2.44.94,3.81-5.75.81-5.75.81,1.06,2.25-.19,3.5-5.87.07-5.87.07.62,2.25-.31,3.43-3.88.88-5.69.19c.25.13.25,1.81-.81,2.94s-4.38.12-5.69-.75a3.24,3.24,0,0,1-2.44,3.25c-2.62.81-3.75-.5-4.69-1.44a11,11,0,0,0-2.18,1.63c-.94.93.31.68,1.56.68s1.81,1.13,4.5,2.32,8.25,5.06,8.12,7.37c3.69,1.63,6.57,4.25,6.13,6.81,0,0-1.46,1.57,4,1.44a40.8,40.8,0,0,0,6,.17c-1.68-4.83,3.42-7.67,5.75-7.59s3.17,2.34,3.75,3.42,1.75,0,1.75,0l3.58-18.25s-2.91,0-2.83-.58a90.69,90.69,0,0,1,5.33-9.34c.34-.16,1.5.84,1.5.84s4.25-6.92,4.67-6.92.58,1.08,1.5,1.08c-.59-.83,3.92-7.5,4.67-7.66s.25,6.75.25,6.75a2.31,2.31,0,0,0,1-.09c.41-.16.33,3.92.91,3.84s4.34-7.92,4.34-7.92.58-1.17-.17-1.17-.92-.83-.92-.83,6.17-7.42,6.75-7.33-1.83,9.83-1.08,9.75,5.58-6.09,6.33-6-.5,4.58-1.91,8-1.84,2.58-1.84,2.58a1.25,1.25,0,0,1-.75-1.25c0-1-.75.25-.83.92s-4.08,5.08-5.17,6.58a4.45,4.45,0,0,0-.66,3.42,18.09,18.09,0,0,1-1.5,3.5c-.19.67.5.21.5.21s4-4.75,6.62-7.38c-2-.5-1-2-1-2s7.75-6.12,8.13-5.62-1.75,6.25-1.75,6.25,1.62-.75,1.62.12-3.12,8.13-3.75,8.38-1.25-.5-1.87-1.63-3.13,2.25-2,4.5c3.91,0-7.38,12.13-8.25,12.88s-1.63,3-2.75.62c0-1-4.13,3-10.63,9.88.63,1.87.63,6.62-2.25,6.12-.25,3.75-1.12,3.25-4,3.88-1.25,4.75-1.5,4.37-5,4.37.25,1.13-.62,2.88-.62,5.25s1.25,1.25,1.12,2.63c.13,3-1.12,9-2.5,9.25s-1.62-1.5-2.75-1.63-1.37,2-2.12,1.88-.63-1.13-1-2.38-2.63.25-3.75.25S477,388,474.07,388s-2-2.63-2.25-3.63c-2.62-.5-2.37,1.75-3.25,2.25s-2.5-.25-2-3.5c-2.25-.37-3.37-.75-2.87-1.25a18.67,18.67,0,0,0,1.62-2.87s-3.5.87-3.25-1.63c-.12-1,6.13-4.62,7.13-5.62s3.75-.25,4.37-.63,7.88-5.75,7.88-5.75" transform="translate(-271.48 -148.25)"/><path class="cls-3" d="M320.74,302.43s3.87,4,4.2,8.54a35.12,35.12,0,0,1-1,9.75s-4.5-7.29-4.83-9.14C318.53,307.39,319.78,307.48,320.74,302.43Z" transform="translate(-271.48 -148.25)"/><path class="cls-3" d="M324.44,322.56a42.76,42.76,0,0,1,1.5-4.84c1-2.66-.25-5.41.92-6.66s4.25-5.75,4.75-4.84.58,6.25-.33,7.5a11.83,11.83,0,0,1-3.07,3.5c-1.52,1-1.52,4-1.52,5.84s-.89,4.75-1.69,4.83-2.14-2.17-3.72-1.92-7-2.41-8.92-6.83-.33-4.33,0-3.42,1.25,2,3.58,2.5,6.49,4.41,7.25,6.75,1.78,2.09,1.81.92A9,9,0,0,0,324.44,322.56Z" transform="translate(-271.48 -148.25)"/><path class="cls-3" d="M328.53,320.72s-1.59-1.08,0-1.83,1.25.33,2.16.42,2.34-1.75,3.17-1.75,1.42,2.5.58,4.83-4.25,8.5-5.91,8.5-2.09-3.08-1.17-4.75S329.12,322.1,328.53,320.72Z" transform="translate(-271.48 -148.25)"/><path class="cls-3" d="M323.69,331.14s-.75-1.83,0-2.37.59,1.41.59,1.41S324.36,331.39,323.69,331.14Z" transform="translate(-271.48 -148.25)"/><path class="cls-3" d="M314.36,333.56s-.83-1.5,1.08-1.67,4,1,4.8.83.95-.54.95-1.83.74-2,.79-1.37.13,2.5.84,2.79.54.91,0,.91-1.67.67-1.58,1.67.87,2.17-.92,2.08A9.75,9.75,0,0,1,314.36,333.56Z" transform="translate(-271.48 -148.25)"/><path class="cls-3" d="M317.51,340.2s-1.75-1.43,2.06-1.62,6.81,2.37,8.81,3.69,2.38,1.37.75,1.43-7.19.25-9.37-1.12S317.51,340.2,317.51,340.2Z" transform="translate(-271.48 -148.25)"/><path class="cls-3" d="M325.94,329.92s-.17,3.14-1.65,3.22,1.65,1.09,1.65,1.75,0,1.59.95,1.5.14-1.91.47-2.75c2-1-.47-1.25-.47-1.25S326.78,330.12,325.94,329.92Z" transform="translate(-271.48 -148.25)"/><path class="cls-3" d="M337.53,346.89a21.15,21.15,0,0,0-1.25-4.42,11.11,11.11,0,0,1,.62-8.91c1.63-2.84,4.38-5,4.46-4.26s1.08,5.6,1.08,7.1-1.7,6.5-3.4,8a1.41,1.41,0,0,0,.65,2.5c1.34.42,1.34,1.25,1.09,2.92s-.09,2.41,1.25,2.41,2.58.17,2.33-1.41-1.92-.17-1.83-1.75,1.81.16,1.86-1.34-2.38-3.83,0-7.75,5-8.33,5.22-7.5,1.25,5.87.67,8.69.25,3.56-.67,4.81-4.67,4.6-4.42,6.26,1.13,1.72,2,2.16.25,1.31.94,1.38,1.88,1.56,1.44,2.06-1.81-1.31-2.19-1.38-2.56.57-2.75-1.12a3.12,3.12,0,0,0-4.19-2.19c-1.75.75-7.17,5.33-10.29,6.5s-6.32-.17-3.26-3.08a13.21,13.21,0,0,1,9.89-4c3.58.08-1.5-3.5-.5-4.17A3.1,3.1,0,0,0,337.53,346.89Z" transform="translate(-271.48 -148.25)"/><path class="cls-3" d="M321.71,352.81s-.57-.59,1.58-1.5,2.82-.75,4.32-1.75,5,.25,7.24,1.25c-1.49.16-3,0-4.32,1.33S326.72,355.56,321.71,352.81Z" transform="translate(-271.48 -148.25)"/><path class="cls-3" d="M322.78,346.64s.28-.79.85,0c.77.58.94,1.42.65,1.67S322.86,348.31,322.78,346.64Z" transform="translate(-271.48 -148.25)"/><path class="cls-3" d="M325,345.89s1.11.07,1,1.45.39,1.05.87,1.05,1.62-2.25,1.25-2.83S325,344.89,325,345.89Z" transform="translate(-271.48 -148.25)"/><path class="cls-3" d="M329.78,347.89s-.42-1.2,0-1.6,1-.52,1.09,0a2.1,2.1,0,0,0,1.11,1.6C332.69,348.22,330.69,349,329.78,347.89Z" transform="translate(-271.48 -148.25)"/><path class="cls-3" d="M330.86,369.31s-.25-1.25.42-1.59,0-2,.85-2.91,5.31-6.42,7.06-6.59.67-3.25,1.34-2.5.16,1.8.79,1.73,1.12.07.44,1-.75,2.69-2,5.25S337.53,367,330.86,369.31Z" transform="translate(-271.48 -148.25)"/><path class="cls-3" d="M338.05,375.33s-1.92-5.81-.79-6.63,5.18-7.16,5.18-8.64,1.25-1.86,1.19-.54,1.31,8.06-1.06,11.12S339.35,375.45,338.05,375.33Z" transform="translate(-271.48 -148.25)"/><path class="cls-3" d="M348.36,352.64a4.55,4.55,0,0,0,.58-2.42c-.16-1.08.62-2.39,1.52-3.44s.23-3.47,1.23-4.64,4.67-4.58,7.67-4.33c-.25.58-1.25,1.42-1.25,3s-1.17,3.05-1.83,4.32-3.54,1.75-4,2.21c-1,1.38-3.09,2.05-2.67,2.88S352.44,351.72,348.36,352.64Z" transform="translate(-271.48 -148.25)"/><path class="cls-3" d="M347.69,364s-.83-1.33,1.92-3.33,3.42-4.67,5.17-4.25c0,.67-.59,1.48,0,2.32s2.25.85,1.91,1.35-5,3-6.23,4.66S348.61,364.72,347.69,364Z" transform="translate(-271.48 -148.25)"/><path class="cls-3" d="M350.46,369.31s-.77-2.4.9-3.87,5.09-3.67,5.38-3,1.95,1.86.95,3-3.33,3.78-4.16,3.87S350.46,369.31,350.46,369.31Z" transform="translate(-271.48 -148.25)"/><path class="cls-3" d="M354.69,373.06a2,2,0,0,1,.42-2.92c1.75-1.42,3.58-4.82,4.83-3.12.5,1,2.59.54,2.59,1.12a3.63,3.63,0,0,1-1.34,3C359.78,372.56,358.44,374.73,354.69,373.06Z" transform="translate(-271.48 -148.25)"/><path class="cls-3" d="M358.94,363.39a1.35,1.35,0,0,1,.42-1.92c1.17-.91,1.67,0,1.67,0S360.86,361.31,358.94,363.39Z" transform="translate(-271.48 -148.25)"/><path class="cls-3" d="M363.19,372.77s-.37-3.19,1-2.66c0,0,6.38,7.78,6.5,14.66a3.66,3.66,0,0,0-4.62-1.25S366.44,376.52,363.19,372.77Z" transform="translate(-271.48 -148.25)"/><path class="cls-3" d="M366.19,387.89s-.5-3.12,2-3.12,3.25,3.87,3.25,6.75C368.82,389.39,366.69,390.14,366.19,387.89Z" transform="translate(-271.48 -148.25)"/><path class="cls-3" d="M357,358.1s-1.63-.79,0-.92S358.28,357.89,357,358.1Z" transform="translate(-271.48 -148.25)"/><path class="cls-3" d="M358.37,360.06s-.42.16-.36-.34.89-.13.89.19S358.37,360.06,358.37,360.06Z" transform="translate(-271.48 -148.25)"/><path class="cls-3" d="M357.17,355.61s1.71-3,3-2.59,2.3.25,2.4.68.41,6.33-1.77,6.09.21-3.9-2.05-3.84C357.88,356,357,356,357.17,355.61Z" transform="translate(-271.48 -148.25)"/><path class="cls-3" d="M331.51,333.45s-1.38-.93-.32-.93,2.19,1.12,2.13,1.43S331.51,333.45,331.51,333.45Z" transform="translate(-271.48 -148.25)"/><path class="cls-3" d="M341.53,343.75s.37-1.53.56-.36.16,2.94-.28,2.55S341.53,343.75,341.53,343.75Z" transform="translate(-271.48 -148.25)"/><path class="cls-3" d="M323.36,336.4s-.72-1.26-.07-1.51,1.12.75,1.12.75S322.69,334.57,323.36,336.4Z" transform="translate(-271.48 -148.25)"/><path class="cls-3" d="M325,338.31s.17-.83.86-.64,1.69,1.13,1.44,1.56S326.15,338.54,325,338.31Z" transform="translate(-271.48 -148.25)"/><path class="cls-3" d="M327.33,336.4s.11-.12.61,0,2.69,3.8,3.19,3.68,1.38-2.38,1.75-2.28.81.66,1,.69.38.72,0,.84-2,1-1.19,2.5,2.92,5.06,3.25,5.81-.18.67-1.93-1.7c-1.63-1.36-2.34-1.61-2.33-1.8s.95-.25.83-.75S327.28,337.15,327.33,336.4Z" transform="translate(-271.48 -148.25)"/><path class="cls-3" d="M328.69,334s.13-1,.44-.86a1.42,1.42,0,0,1,1,.86c.23.62-.28,1.84-.56,1.6S328.38,335.35,328.69,334Z" transform="translate(-271.48 -148.25)"/><path class="cls-3" d="M372.94,360.1s3.5-3.07,6.25-2.93c.84,1.64-.58,2.56-2,2.93A15.34,15.34,0,0,1,372.94,360.1Z" transform="translate(-271.48 -148.25)"/><path class="cls-3" d="M374,364.64s2-3.75,7.75-1.75C378.36,364.81,375.61,365.47,374,364.64Z" transform="translate(-271.48 -148.25)"/><path class="cls-3" d="M377.9,366.56s-.38-1.34,1.54-1.25,5.09,1.41,3.17,1.25A39.47,39.47,0,0,0,377.9,366.56Z" transform="translate(-271.48 -148.25)"/><path class="cls-3" d="M382.78,363.65a5.71,5.71,0,0,1,5.16-3.38C387.94,362.39,384.23,364.16,382.78,363.65Z" transform="translate(-271.48 -148.25)"/><path class="cls-3" d="M386.53,365.3s.66-2.08,2.08-2.24a26.58,26.58,0,0,1,3.83,0A5,5,0,0,1,386.53,365.3Z" transform="translate(-271.48 -148.25)"/><path class="cls-3" d="M392.44,364.64s1.92-3.08,3.67-3.08a8,8,0,0,0,5-2.25c.83-1,2.33,0,2.33,0S394.94,366.29,392.44,364.64Z" transform="translate(-271.48 -148.25)"/><path class="cls-3" d="M394.61,360.27s1.33-4,2.17-3.88,3,2.17,2.33,2.83S398.11,360.56,394.61,360.27Z" transform="translate(-271.48 -148.25)"/><path class="cls-3" d="M389.49,362a7.59,7.59,0,0,1,1.12-3.64c1-1.22,4.75-2.64,4.5-1.64s-3,5.23-3.83,5.28S389.4,362.79,389.49,362Z" transform="translate(-271.48 -148.25)"/><path class="cls-3" d="M379.44,360.89s.67-2.75,2.34-2.79a9,9,0,0,0,3.58-.93c.08-.11.67.14.42.93s-2.25,2.06-3,3S379.44,360.89,379.44,360.89Z" transform="translate(-271.48 -148.25)"/><path class="cls-3" d="M387,358.72a3.67,3.67,0,0,1,.91-3c1.25-1.41,4.92-5.75,5.09-5s-2,1.84-2.25,3S390.44,359,387,358.72Z" transform="translate(-271.48 -148.25)"/><path class="cls-3" d="M380.54,356.39s1.84-3.5,2.67-2.92.07,1.35.82,1.43-.06,1-.82,1.45S380.8,357.47,380.54,356.39Z" transform="translate(-271.48 -148.25)"/><path class="cls-3" d="M377.53,355.81s2.08-3.92,3.58-3.92.67.75.67.75S379.19,356.39,377.53,355.81Z" transform="translate(-271.48 -148.25)"/><path class="cls-3" d="M383.61,350.64s-.5-1.25,1.33-2.58,2.42-3.51,3-2.84a2.65,2.65,0,0,0,2.5,1.09c1-.25,1.34.83.42,1s-2.08-.67-2.92.08S384.86,351.05,383.61,350.64Z" transform="translate(-271.48 -148.25)"/><path class="cls-3" d="M385.36,353.41s-.5-1.6,1.63-3.1,2.45-1,2.49-.42.93.7.53,1.47S386.19,354.18,385.36,353.41Z" transform="translate(-271.48 -148.25)"/><path class="cls-3" d="M391.4,354.68s4.38-4.3,4.63-4,0,2.13,0,2.94S396.77,355.39,391.4,354.68Z" transform="translate(-271.48 -148.25)"/><path class="cls-3" d="M391.4,349a15.18,15.18,0,0,1,2.88-2.16c1-.42.91-2.25,0-2.25s-3.92.91-3.84,0,4.89-4.09,5.7-3.17,0,7.93,0,7.93S391,349.3,391.4,349Z" transform="translate(-271.48 -148.25)"/><path class="cls-3" d="M354.57,222.43s-1.75.46-1-2,3-3.5,4-3.25a2.94,2.94,0,0,1,1.87,3.5c-.87.5-3-.86-3-.86S355.59,222.73,354.57,222.43Z" transform="translate(-271.48 -148.25)"/><path class="cls-3" d="M356.47,226s-.9-4,.6-4.13a1.21,1.21,0,0,1,1.12,2.06,2.15,2.15,0,0,0-.25,2.07Z" transform="translate(-271.48 -148.25)"/><path class="cls-3" d="M352.19,227.64a12.74,12.74,0,0,0,1.19-2.75c.31-1.25.94,1.13.94,1.13a31.23,31.23,0,0,0,7.37,3.87c4.63,1.75,8.75,3.88,5.75,5.75-2.62,1.38-4.5-1-6.25-.87s-4.73.37-5,3.12c-3.13-.37-6.88-6.12-6.51-7.25S351,230.39,352.19,227.64Z" transform="translate(-271.48 -148.25)"/><path class="cls-3" d="M359.07,237.89s-1.25-2,3.25-1,6.15.36,6.15.36-.53,2.14-1.15,2.27-2-.75-4.5-.75A6.88,6.88,0,0,1,359.07,237.89Z" transform="translate(-271.48 -148.25)"/><path class="cls-3" d="M357.39,239.53s-.7-1.14,1.18-.76,20.12,4.62,28.87,10.87,16.63,13.25,15.63,15.25-4.38,2.75-4.38,3.88-1.62.87-1.75-.75-5.5-9.5-18.87-16.5c-10.75-4.13-15.13-4.5-16.63-4.63s-1.86-2.12-4.18-2.12C357.26,241.64,357.39,239.53,357.39,239.53Z" transform="translate(-271.48 -148.25)"/><path class="cls-3" d="M360.82,249.14a2.22,2.22,0,0,1,2-.75c1.37.13,17.87,3.38,27.12,12.63,4,4.62,4,5.5,2.63,6.5s-2,.25-4,1.94,0,2.93.75,3.81.62,2.25,2.37,3.12a3.4,3.4,0,0,1,2.25,3.63c0,1.87,1,3.62,3.88,3.75s8.75-.75,8.87-4,1-6,2-5.75,2.75.5,2,2.87-2.37,5.13-2.25,8.13-.5,3.87.75,4.87a1.47,1.47,0,0,1-.12,2.63c-.88.37-4.25,2.62-4.13,5.12-2.25,1.63-2.87,2.88-2.62,4h-6.18v3.13s-4.7.87-7.2-1-8-10.5-7-14.25c1.88-6.75,8.25-7.88,6.38-14.38-2.13-5.25-10.75-12.37-16.13-17.12S360.82,249.14,360.82,249.14Z" transform="translate(-271.48 -148.25)"/><path class="cls-3" d="M390,271.39a2.06,2.06,0,0,1,2.16-1c1.42.33.25,2.5,2.34,2.75s4.33,1,4.33,2.75-.83,3.17.75,4.08,1,1.34.42,2.09-4.48.33-4.7-1.75-1-4.59-2.8-5.09S390,271.39,390,271.39Z" transform="translate(-271.48 -148.25)"/><path class="cls-3" d="M401.94,275.72s1.25-3.33,2.25-3,1,1.92,1.42,2.17.25,1.48,0,1.78-.17,3-.67,4-3.25,1.67-3,1.08S401.94,275.72,401.94,275.72Z" transform="translate(-271.48 -148.25)"/><path class="cls-3" d="M411.94,273.64s2.63-.75,2.75,0,.38,5.13-.75,7.38-1.25,6.75-1.25,6.75-2.24,3.12-3.25,1.12c-.12-2.25.12-6.87,1.44-8.37S411.94,273.64,411.94,273.64Z" transform="translate(-271.48 -148.25)"/><path class="cls-3" d="M416.78,277.32s2.08,1,1.83,1.49-2.94,6.91-3.8,7.08-.55-2.33,0-3.08C416.36,281.64,415.69,279.08,416.78,277.32Z" transform="translate(-271.48 -148.25)"/><path class="cls-3" d="M326.78,236.61s-.5-1.64,1-1.3,25,6.5,40.69,22c16.79,13.12,19.31,18.33,18.31,21s-8.48,9.16-6.24,15.16,7.23,12.17,9.9,12.84h5.67v5.83a24.78,24.78,0,0,1-2.25,1.83c-.33-.58-2.75-1.66-5.33-1.41-.84-1.84-4.09-1.75-4.09-1.75s-.08-1.92-3.41-2.59c-1-2.66-2.92-2.66-2.92-2.66a2.62,2.62,0,0,0-1.67-3.5,2.84,2.84,0,0,0-1.16-3.25s1.83-1.5-.84-4a2.1,2.1,0,0,0,0-3.5c2.25-.75-.08-2.5-.08-2.5,1.5-.84.5-4.25.5-4.25,1.58-.25,3-3.92,1.58-4.67,2.5-.33-.08-4.33-.08-4.33s3.58-.25,2-1.84a16.2,16.2,0,0,0-3.5-2.58s3.5-1.17,2-2.25-3.92-1.87-4.92-4.12-13-7.3-16.5-10a99.77,99.77,0,0,0-18.5-10.67C328.61,238.64,326.78,236.61,326.78,236.61Z" transform="translate(-271.48 -148.25)"/><path class="cls-3" d="M335.53,250.06s1-2.75,3.41-2.42,5.34,1.5,9,3.83,6.67,4.59,6.42,5-1.92.42-2,1.59-.5,1.91-1.75,1.91-5.5-3.75-8.83-5.08C338.28,253.56,338.53,253.14,335.53,250.06Z" transform="translate(-271.48 -148.25)"/><path class="cls-3" d="M341.19,262.06s-1-1.5,1.09-2.59,3.5.42,5.91,1.3,8.75,3,9.84,3.62c-.25,1-2.25.75-2.34,1.42s.92,2.5.67,2.91-2.42-1-6.08-1.66C346.37,265.63,341.43,262.76,341.19,262.06Z" transform="translate(-271.48 -148.25)"/><path class="cls-3" d="M358.94,271.56s-1,1-.91,1.75,1,1.75.45,2.25-4.44-2.13-9-2.86c-4.05-.89-5.38-3.49-2.46-3.9a8.67,8.67,0,0,1,6.25,1C355,270.81,358.19,271.06,358.94,271.56Z" transform="translate(-271.48 -148.25)"/><path class="cls-3" d="M347.36,278.89s-2.22-.85-1.9-2.22,2.82-3.11,4.65-2.53,7.08,2.78,8.83,3.18,2.5.9,1.88,1.57.23,2.25.22,2.5-.51.67-2.1,0S351.94,280.31,347.36,278.89Z" transform="translate(-271.48 -148.25)"/><path class="cls-3" d="M345.43,284.06s.6-3.25,5.35-2.63,10.09,1.79,10.63,1.79-.3,1.84.37,2.42-2.34.58-2.34.58S345.41,287.14,345.43,284.06Z" transform="translate(-271.48 -148.25)"/><path class="cls-3" d="M345.43,290s0-2.66,4.6-2.41,10.77-.67,11,.5,1.65,2.08,1.4,2.75-2.5.33-2.91.91S346.24,292.47,345.43,290Z" transform="translate(-271.48 -148.25)"/><path class="cls-3" d="M346.86,297.14s.51-3.58,5.34-3.58,9.44-1.42,9.67-.34,0,2.59,2.24,2.67c-.5,1-1.65.92-3.07,1.25S349.44,298.81,346.86,297.14Z" transform="translate(-271.48 -148.25)"/><path class="cls-3" d="M350.46,304s-2.43-.25-.77-2.25,4.17-3.16,7.67-3,5.92-1,5.92,0,1.25,1.35.83,1.85S356.72,304.72,350.46,304Z" transform="translate(-271.48 -148.25)"/><path class="cls-3" d="M352.19,309.56s-.08-3.59,2.75-4.09,6.92-1.75,8.17-2.75.92.71,1.5,1.36,2.25,1.31,1.5,1.39-2.58,2-5.29,3.09S355.28,311,352.19,309.56Z" transform="translate(-271.48 -148.25)"/><path class="cls-3" d="M357.44,316.06s-2.58.25-1.33-2.09,2.84-2.27,5.3-3.8,5.33-3.78,4.89-2.86-1.13,2.16.05,2.41,2.93-.43,2.84.45S362.11,316.14,357.44,316.06Z" transform="translate(-271.48 -148.25)"/><path class="cls-3" d="M360.82,320.72s-1.88-.25-.79-2,2.17-1.83,4.17-3.16,4.5-3.25,5-2.5a3.42,3.42,0,0,0,2.83,1.33c1.25,0-6,5.75-7.83,6.33A5.53,5.53,0,0,1,360.82,320.72Z" transform="translate(-271.48 -148.25)"/><path class="cls-3" d="M366.3,325s-3.52.34-2.1-1.83,6.95-5.67,8-5.67.86.59,1.94.67,2.33-.25,1.75.75S369.41,324.81,366.3,325Z" transform="translate(-271.48 -148.25)"/><path class="cls-3" d="M371.28,328.81s-1.6-.17-1.34-2.34,2.75-2.58,4.59-4,2.33-2.83,3-2.41a6.57,6.57,0,0,0,3,.58c1.07,0,.68.83,0,1.67S376.78,330,371.28,328.81Z" transform="translate(-271.48 -148.25)"/><path class="cls-3" d="M376.86,332.72s-2-1.5-.67-3.25,4.88-5.83,5.82-7.16.63,1,.63,1-.18.33,1.69.33,2.53-.11,1.86.82S379.94,334.39,376.86,332.72Z" transform="translate(-271.48 -148.25)"/><path class="cls-3" d="M383.55,335.72s-2.23.42-1.54-2.25,2.17-3.41,3.3-5.41,1.47-2.34,2.63-2.34,3.92-.66,3.84,0S388.32,335.22,383.55,335.72Z" transform="translate(-271.48 -148.25)"/><path class="cls-3" d="M390.78,337.81s-3.43.08-1.3-3.84c1.8-3.66,2-6.79,3-6.56s4.19-.89,4.06,0a32.62,32.62,0,0,1-2.73,8C392.28,338.06,390.78,337.81,390.78,337.81Z" transform="translate(-271.48 -148.25)"/><path class="cls-3" d="M355.49,261.39s-3-1.83-1.11-3.17,7.48,1.67,10.9,3.67,5.33,5,6.75,6.17,2.91.91,2.41,1.91-2.58-.51-2.58-.51S357,262.87,355.49,261.39Z" transform="translate(-271.48 -148.25)"/><path class="cls-3" d="M358.61,268.8s-2.12-.74-1.35-2.16,5.93.5,5.93.5,12.09,4.21,12.75,7.48C375.19,275.14,360.12,270.46,358.61,268.8Z" transform="translate(-271.48 -148.25)"/><path class="cls-3" d="M363.28,276.67s-3.59-1.78-3.59-3.36,4.75-.23,7.84.72c3.33.78,6.33,1.49,7.41,2.34s1.67,2,1,2.1S365.43,278,363.28,276.67Z" transform="translate(-271.48 -148.25)"/><path class="cls-3" d="M363.19,281.35s-1.47-.71-1.32-1.79,3.14-.92,8.07,0c5.17.33,5.5.08,5.17,1s-.17,1.77-1.5,1.84S366.61,282.82,363.19,281.35Z" transform="translate(-271.48 -148.25)"/><path class="cls-3" d="M364.53,286.35s-2.17-2.2-.67-2.5,9.83,0,9.83,0,.59,2.63-.66,2.5S364.53,286.35,364.53,286.35Z" transform="translate(-271.48 -148.25)"/><path class="cls-3" d="M365.36,290.14s-3.09-.5-2.88-1.42,2.55-1.55,4.46-1.27,6.89.36,6.89.36a4.07,4.07,0,0,1-3.39,2.83A17.8,17.8,0,0,1,365.36,290.14Z" transform="translate(-271.48 -148.25)"/><path class="cls-3" d="M363.33,294s.1-1.69,3.19-1.88,7.53-.27,7.31.73-1.46,2.82-4.63,2.57A20.65,20.65,0,0,1,363.33,294Z" transform="translate(-271.48 -148.25)"/><path class="cls-3" d="M366.3,303.39s-.44-2,1.39-2.2,5.38-1.63,6.15-1.63,1.35,1.58,1.27,2.33S375.39,303.38,366.3,303.39Z" transform="translate(-271.48 -148.25)"/><path class="cls-3" d="M367.61,308.64s.57-3.26,3.08-3.67,5.84-1.46,6-.89-1.12,3.48-4.52,4.14A13.53,13.53,0,0,1,367.61,308.64Z" transform="translate(-271.48 -148.25)"/><path class="cls-3" d="M371.11,312.89s-.38-2.17,2.73-3.67,4.69-2.76,5.19-2.13,1.58,1.05.41,2.05S376.1,313,371.11,312.89Z" transform="translate(-271.48 -148.25)"/><path class="cls-3" d="M374.44,316.94s-.47-1.55,2.27-3.55,4.28-3.58,5.3-2.92,1.35.92.6,1.67S377.69,316.9,374.44,316.94Z" transform="translate(-271.48 -148.25)"/><path class="cls-3" d="M378.72,318.77a4.14,4.14,0,0,1,1.25-2.7c1.22-1.18,5.35-4.43,6.22-3.8.5.68,1.07.68,1.13,1.06s-2.69,4.94-5.69,5.44S378.72,318.77,378.72,318.77Z" transform="translate(-271.48 -148.25)"/><path class="cls-3" d="M385.32,321.9a1.23,1.23,0,0,1-1.06-1.92c.81-1.78,3.62-6.48,6.31-6s1.91,1.92,1.91,1.92a46.1,46.1,0,0,0-4.16,4.78C387.57,322,387,322.15,385.32,321.9Z" transform="translate(-271.48 -148.25)"/><path class="cls-3" d="M389.41,324.2s-1.28,0-.18-1.5,5-8.31,6.88-8.28c.65.41.4,3.22-.76,5.06S392.39,324.55,389.41,324.2Z" transform="translate(-271.48 -148.25)"/><path class="cls-3" d="M394.44,325.8S393,325.73,394,324s2-2.87,2.28-2.59,0,4.44,0,4.44Z" transform="translate(-271.48 -148.25)"/><path class="cls-3" d="M403.69,301.77h2.38s.75-2.3-.92-2.25C403.74,299.81,403.69,301.77,403.69,301.77Z" transform="translate(-271.48 -148.25)"/><path class="cls-3" d="M406.78,298a1.78,1.78,0,0,1,.25-2.21c1-.92,2-1.92,2.39-1.42s.61,1.67-.93,3.25A2.33,2.33,0,0,1,406.78,298Z" transform="translate(-271.48 -148.25)"/><path class="cls-3" d="M407.44,301.77v-2.26a1.77,1.77,0,0,0,2-1.24c.61-1.55,1.69-1.92,1.69-1.3a6.1,6.1,0,0,0,1,2.71v2.09h-4.83" transform="translate(-271.48 -148.25)"/><path class="cls-3" d="M415.86,301.77a1.16,1.16,0,0,1,1-1.38c1.21-.33,1.29-.88,1.46-.88s.37.34.37.34.88,1.25,1.17,1.25.75.67,0,.67Z" transform="translate(-271.48 -148.25)"/><path class="cls-3" d="M420.94,299.72a2,2,0,0,1-.71-1.62c.13-.92,1.09-1.13,1.46-1.75s1.59-.79,1.59-.17.17,1,1.21,1.46,1.21,1.54.37,2.08-1.62,1.09-1.62,1.3-.92,0-.92-.38S422.15,300.6,420.94,299.72Z" transform="translate(-271.48 -148.25)"/><path class="cls-3" d="M412.11,296.45s-.29-1.18.65-1.31,2.91-2.12,3.08-1.81,1.23,3.19,1.85,3.12.25,1.39,0,1.6-2.89,1.28-2.88,2-1.12-.57-1.12-.57S412.69,297.42,412.11,296.45Z" transform="translate(-271.48 -148.25)"/><path class="cls-3" d="M412.07,293.6a1.11,1.11,0,0,1-.83-1.38c.25-1.12.12-.75.87-1.41s1.68-2.38,2.94-1.46c.52.37.89.71.79,1s.4,1.46-.19,1.58a4,4,0,0,0-2.5,1.67A1.29,1.29,0,0,1,412.07,293.6Z" transform="translate(-271.48 -148.25)"/><path class="cls-3" d="M417.11,292.68a1.87,1.87,0,0,1,.75-2.16c1.25-1,1.91-1,2.35-.55s1.48,1.3,1.44,1.84.78,2.29-1,3.16c-.3.42-.37.84-1.21.82s-1-.52-1.37-.86A2,2,0,0,1,417.11,292.68Z" transform="translate(-271.48 -148.25)"/><path class="cls-3" d="M495.56,364s.83-1.33-1.92-3.33-3.42-4.67-5.17-4.25c0,.67.59,1.48,0,2.32s-2.25.85-1.91,1.35,5,3,6.23,4.66S494.64,364.72,495.56,364Z" transform="translate(-271.48 -148.25)"/><path class="cls-3" d="M492.79,369.31s.77-2.4-.9-3.87-5.09-3.67-5.37-3-2,1.86-1,3,3.33,3.78,4.16,3.87S492.79,369.31,492.79,369.31Z" transform="translate(-271.48 -148.25)"/><path class="cls-3" d="M488.56,373.06a2,2,0,0,0-.42-2.92c-1.75-1.42-3.58-4.82-4.83-3.12-.5,1-2.59.54-2.59,1.12a3.63,3.63,0,0,0,1.34,3C483.47,372.56,484.81,374.73,488.56,373.06Z" transform="translate(-271.48 -148.25)"/><path class="cls-3" d="M484.31,363.39a1.35,1.35,0,0,0-.42-1.92c-1.17-.91-1.67,0-1.67,0S482.39,361.31,484.31,363.39Z" transform="translate(-271.48 -148.25)"/><path class="cls-3" d="M486.27,358.1s1.62-.79,0-.92S485,357.89,486.27,358.1Z" transform="translate(-271.48 -148.25)"/><path class="cls-3" d="M484.88,360.06s.42.16.36-.34-.89-.13-.89.19S484.88,360.06,484.88,360.06Z" transform="translate(-271.48 -148.25)"/><path class="cls-3" d="M486.08,355.61s-1.71-3-3-2.59-2.31.5-2.41.93-.4,6.08,1.79,5.84-.22-3.9,2-3.84C485.37,356,486.29,356,486.08,355.61Z" transform="translate(-271.48 -148.25)"/><path class="cls-3" d="M473,359.69s-3.5-3.07-6.25-2.94c-.84,1.64.58,2.56,2,2.94A15.34,15.34,0,0,0,473,359.69Z" transform="translate(-271.48 -148.25)"/><path class="cls-3" d="M472,364.22s-2-3.75-7.75-1.75C467.62,364.39,470.37,365.06,472,364.22Z" transform="translate(-271.48 -148.25)"/><path class="cls-3" d="M468.08,366.14s.38-1.33-1.54-1.25-5.09,1.42-3.17,1.25A39.47,39.47,0,0,1,468.08,366.14Z" transform="translate(-271.48 -148.25)"/><path class="cls-3" d="M463.2,363.23a5.71,5.71,0,0,0-5.16-3.38C458,362,461.75,363.74,463.2,363.23Z" transform="translate(-271.48 -148.25)"/><path class="cls-3" d="M459.45,364.89s-.66-2.08-2.08-2.25a26.58,26.58,0,0,0-3.83,0A5,5,0,0,0,459.45,364.89Z" transform="translate(-271.48 -148.25)"/><path class="cls-3" d="M453.54,364.22s-1.92-3.08-3.67-3.08a8,8,0,0,1-5-2.25c-.83-1-2.33,0-2.33,0S451,365.88,453.54,364.22Z" transform="translate(-271.48 -148.25)"/><path class="cls-3" d="M451.37,359.85s-1.33-4-2.17-3.88-3,2.17-2.33,2.84S447.87,360.14,451.37,359.85Z" transform="translate(-271.48 -148.25)"/><path class="cls-3" d="M456.5,361.58a7.59,7.59,0,0,0-1.13-3.63c-1-1.23-4.75-2.64-4.5-1.64s3,5.22,3.83,5.27S456.58,362.37,456.5,361.58Z" transform="translate(-271.48 -148.25)"/><path class="cls-3" d="M466.54,360.48s-.67-2.76-2.34-2.8a8.81,8.81,0,0,1-3.58-.93c-.08-.11-.67.14-.42.93s2.25,2.06,3,3S466.54,360.48,466.54,360.48Z" transform="translate(-271.48 -148.25)"/><path class="cls-3" d="M459,358.3a3.65,3.65,0,0,0-.91-3c-1.25-1.42-4.92-5.75-5.09-5s2,1.83,2.25,3S455.54,358.54,459,358.3Z" transform="translate(-271.48 -148.25)"/><path class="cls-3" d="M465.44,356s-1.84-3.5-2.66-2.91-.08,1.35-.83,1.42.06,1,.83,1.45S465.18,357.06,465.44,356Z" transform="translate(-271.48 -148.25)"/><path class="cls-3" d="M468.45,355.39s-2.08-3.92-3.58-3.92-.67.75-.67.75S466.79,356,468.45,355.39Z" transform="translate(-271.48 -148.25)"/><path class="cls-3" d="M462.37,350.22s.5-1.25-1.33-2.58-2.42-3.51-3-2.84a2.65,2.65,0,0,1-2.5,1.09c-1-.25-1.34.83-.42,1s2.09-.67,2.92.08S461.12,350.63,462.37,350.22Z" transform="translate(-271.48 -148.25)"/><path class="cls-3" d="M460.62,353s.5-1.6-1.63-3.1-2.44-1-2.49-.42-.93.7-.53,1.48S459.79,353.76,460.62,353Z" transform="translate(-271.48 -148.25)"/><path class="cls-3" d="M454.58,354.27s-4.38-4.3-4.63-4,0,2.13,0,2.94S449.21,355,454.58,354.27Z" transform="translate(-271.48 -148.25)"/><path class="cls-3" d="M455,348.64a15.55,15.55,0,0,0-2.88-2.17c-1-.41-.92-2.25,0-2.25s3.92.92,3.83,0-4.89-4.08-5.69-3.16,0,7.92,0,7.92S455.37,349,455,348.64Z" transform="translate(-271.48 -148.25)"/><path class="cls-3" d="M491.49,222.43s1.75.46,1-2-3-3.5-4-3.25a3,3,0,0,0-1.88,3.5c.88.5,3-.86,3-.86S490.47,222.73,491.49,222.43Z" transform="translate(-271.48 -148.25)"/><path class="cls-3" d="M489.59,226s.9-4-.6-4.12a1.21,1.21,0,0,0-1.13,2.06,2.13,2.13,0,0,1,.25,2.06Z" transform="translate(-271.48 -148.25)"/><path class="cls-3" d="M493.86,227.64a12.74,12.74,0,0,1-1.19-2.75c-.31-1.25-.93,1.12-.93,1.12a31,31,0,0,1-7.38,3.88c-4.62,1.75-8.75,3.87-5.75,5.75,2.63,1.37,4.5-1,6.25-.88s4.74.38,5,3.13c3.13-.38,6.88-6.13,6.5-7.25S495.05,230.39,493.86,227.64Z" transform="translate(-271.48 -148.25)"/><path class="cls-3" d="M487,237.89s1.25-2-3.25-1-6.15.36-6.15.36.52,2.14,1.15,2.26,2-.75,4.5-.75A6.94,6.94,0,0,0,487,237.89Z" transform="translate(-271.48 -148.25)"/><path class="cls-3" d="M488.67,239.53s.69-1.14-1.18-.77-20.13,4.63-28.88,10.88S442,262.89,443,264.89s4.37,2.75,4.37,3.87,1.63.88,1.75-.75,5.5-9.5,18.88-16.5c10.75-4.12,15.12-4.5,16.62-4.62s1.87-2.13,4.18-2.13C488.79,241.64,488.67,239.53,488.67,239.53Z" transform="translate(-271.48 -148.25)"/><path class="cls-3" d="M449.92,301.64v3.12s4.69.88,7.19-1,8-10.5,7-14.25c-1.87-6.75-8.25-7.87-6.37-14.37,2.12-5.25,10.75-12.38,16.12-17.13s11.38-8.87,11.38-8.87a2.21,2.21,0,0,0-2-.75c-1.38.12-17.88,3.38-27.13,12.63-4,4.62-4,5.49-2.62,6.49s2,.26,4,1.95,0,2.93-.75,3.8c0,0-1,3.13-.12,4.06s.88,3.3,0,4.62-5.78,4.41-5.58,7.62-1.79,4.56-4.29,4.7-2,.92-1.5,1.15,2.25,4.17,2.56,6.35C449.92,301.76,449.92,301.64,449.92,301.64Z" transform="translate(-271.48 -148.25)"/><path class="cls-3" d="M519.28,236.61s.5-1.64-1-1.3-25,6.5-40.69,22c-16.79,13.12-19.31,18.33-18.31,21s8.48,9.16,6.24,15.16-7.24,12.17-9.91,12.84h-5.67v5.83a24.78,24.78,0,0,0,2.25,1.83c.34-.58,2.75-1.66,5.34-1.41.83-1.84,4.08-1.75,4.08-1.75s.08-1.92,3.42-2.59c1-2.66,2.91-2.66,2.91-2.66a2.63,2.63,0,0,1,1.67-3.5,2.85,2.85,0,0,1,1.17-3.25s-1.83-1.5.83-4a2.11,2.11,0,0,1,0-3.5c-2.25-.75.09-2.5.09-2.5-1.5-.84-.5-4.25-.5-4.25-1.59-.25-3-3.92-1.59-4.67-2.5-.33.08-4.33.08-4.33s-3.58-.25-2-1.84a16.2,16.2,0,0,1,3.5-2.58s-3.5-1.17-2-2.25,3.91-1.88,4.91-4.13,13-7.29,16.5-9.95a100.42,100.42,0,0,1,18.5-10.67C517.45,238.64,519.28,236.61,519.28,236.61Z" transform="translate(-271.48 -148.25)"/><path class="cls-3" d="M510.53,250.06s-1-2.75-3.42-2.42-5.33,1.5-9,3.83-6.66,4.59-6.41,5,1.91.42,2,1.59.5,1.91,1.75,1.91,5.49-3.75,8.83-5.08C507.78,253.56,507.53,253.14,510.53,250.06Z" transform="translate(-271.48 -148.25)"/><path class="cls-3" d="M504.86,262.06s1-1.5-1.08-2.59-3.5.42-5.92,1.29-8.75,3.05-9.83,3.63c.25,1,2.25.75,2.33,1.42s-.92,2.5-.67,2.91,2.42-1,6.09-1.66C499.69,265.63,504.63,262.76,504.86,262.06Z" transform="translate(-271.48 -148.25)"/><path class="cls-3" d="M487.11,271.56s1,1,.92,1.75-1,1.75-.46,2.25,4.45-2.13,9-2.86c4.05-.89,5.38-3.49,2.47-3.9a8.66,8.66,0,0,0-6.25,1C491,270.81,487.86,271.06,487.11,271.56Z" transform="translate(-271.48 -148.25)"/><path class="cls-3" d="M498.69,278.89s2.23-.85,1.91-2.22-2.82-3.11-4.66-2.53-7.08,2.78-8.83,3.18-2.5.9-1.87,1.57-.23,2.25-.22,2.5.51.67,2.09,0S494.11,280.31,498.69,278.89Z" transform="translate(-271.48 -148.25)"/><path class="cls-3" d="M500.63,284.06s-.6-3.25-5.35-2.63-10.09,1.79-10.63,1.79.29,1.84-.37,2.42,2.33.58,2.33.58S500.65,287.14,500.63,284.06Z" transform="translate(-271.48 -148.25)"/><path class="cls-3" d="M500.63,290s0-2.66-4.6-2.41-10.77-.67-11,.5-1.66,2.08-1.41,2.75,2.5.33,2.92.91S499.81,292.47,500.63,290Z" transform="translate(-271.48 -148.25)"/><path class="cls-3" d="M499.2,297.14s-.52-3.58-5.35-3.58-9.43-1.42-9.67-.34,0,2.59-2.23,2.67c.5,1,1.64.92,3.07,1.25S496.61,298.81,499.2,297.14Z" transform="translate(-271.48 -148.25)"/><path class="cls-3" d="M495.6,304s2.43-.25.76-2.25-4.17-3.16-7.67-3-5.91-1-5.91,0-1.25,1.35-.83,1.85S489.33,304.72,495.6,304Z" transform="translate(-271.48 -148.25)"/><path class="cls-3" d="M493.86,309.56s.09-3.59-2.75-4.09-6.92-1.75-8.17-2.75-.91.7-1.5,1.35-2.25,1.32-1.5,1.4,2.59,2,5.3,3.09S490.78,311,493.86,309.56Z" transform="translate(-271.48 -148.25)"/><path class="cls-3" d="M488.61,316.06s2.59.25,1.34-2.09-2.84-2.27-5.3-3.8-5.34-3.78-4.9-2.86,1.14,2.16,0,2.41-2.93-.43-2.85.45S484,316.14,488.61,316.06Z" transform="translate(-271.48 -148.25)"/><path class="cls-3" d="M485.24,320.72s1.87-.25.79-2-2.17-1.83-4.17-3.16-4.5-3.25-5-2.5a3.43,3.43,0,0,1-2.83,1.33c-1.25,0,6,5.75,7.83,6.33A5.54,5.54,0,0,0,485.24,320.72Z" transform="translate(-271.48 -148.25)"/><path class="cls-3" d="M480.12,325.47s3.52.34,2.1-1.83-7-5.67-8-5.67-.86.59-1.94.67-2.34-.25-1.75.75S477,325.31,480.12,325.47Z" transform="translate(-271.48 -148.25)"/><path class="cls-3" d="M474.78,328.81s1.6-.17,1.34-2.34-2.76-2.58-4.59-4-2.34-2.83-3-2.41a6.6,6.6,0,0,1-3,.58c-1.08,0-.68.83,0,1.67S469.28,330,474.78,328.81Z" transform="translate(-271.48 -148.25)"/><path class="cls-3" d="M469.19,332.72s2-1.5.67-3.25-4.88-5.83-5.81-7.16-.64,1-.64,1,.19.33-1.68.33-2.53-.11-1.87.82S466.11,334.39,469.19,332.72Z" transform="translate(-271.48 -148.25)"/><path class="cls-3" d="M462.51,335.72s2.22.42,1.54-2.25-2.17-3.41-3.31-5.41-1.46-2.34-2.63-2.34-3.92-.66-3.83,0S457.74,335.22,462.51,335.72Z" transform="translate(-271.48 -148.25)"/><path class="cls-3" d="M455.28,337.81s3.42.08,1.29-3.84c-1.79-3.66-2-6.79-3-6.56s-4.19-.89-4.05,0a31.76,31.76,0,0,0,2.73,8C453.78,338.06,455.28,337.81,455.28,337.81Z" transform="translate(-271.48 -148.25)"/><path class="cls-3" d="M490.57,261.39s3-1.83,1.11-3.17-7.49,1.67-10.9,3.67-5.34,5-6.75,6.17-2.92.91-2.42,1.91,2.58-.51,2.58-.51S489,262.87,490.57,261.39Z" transform="translate(-271.48 -148.25)"/><path class="cls-3" d="M487.45,268.8s2.11-.74,1.34-2.16-5.93.5-5.93.5-12.08,4.21-12.75,7.48C470.86,275.14,485.93,270.46,487.45,268.8Z" transform="translate(-271.48 -148.25)"/><path class="cls-3" d="M482.78,276.67s3.59-1.78,3.59-3.36-4.76-.23-7.84.71c-3.33.79-6.33,1.5-7.42,2.35s-1.66,2-1,2.1S480.62,278,482.78,276.67Z" transform="translate(-271.48 -148.25)"/><path class="cls-3" d="M482.86,281.35s1.47-.71,1.32-1.79-3.13-.92-8.06,0c-5.18.33-5.51.08-5.18,1s.17,1.77,1.51,1.84S479.45,282.82,482.86,281.35Z" transform="translate(-271.48 -148.25)"/><path class="cls-3" d="M481.53,286.35s2.17-2.2.67-2.5-9.84,0-9.84,0-.58,2.63.67,2.5S481.53,286.35,481.53,286.35Z" transform="translate(-271.48 -148.25)"/><path class="cls-3" d="M480.69,290.14s3.09-.5,2.88-1.42-2.54-1.55-4.46-1.27-6.89.36-6.89.36a4.09,4.09,0,0,0,3.39,2.83A17.8,17.8,0,0,0,480.69,290.14Z" transform="translate(-271.48 -148.25)"/><path class="cls-3" d="M482.72,294s-.09-1.69-3.18-1.88-7.53-.27-7.32.72,1.47,2.83,4.64,2.58A20.52,20.52,0,0,0,482.72,294Z" transform="translate(-271.48 -148.25)"/><path class="cls-3" d="M479.75,303.39s.45-2-1.39-2.21-5.37-1.62-6.14-1.62-1.36,1.58-1.27,2.33S470.67,303.37,479.75,303.39Z" transform="translate(-271.48 -148.25)"/><path class="cls-3" d="M478.44,308.64s-.56-3.26-3.07-3.67-5.84-1.46-6-.9,1.13,3.49,4.52,4.15A13.53,13.53,0,0,0,478.44,308.64Z" transform="translate(-271.48 -148.25)"/><path class="cls-3" d="M474.94,312.89s.38-2.17-2.72-3.67-4.69-2.76-5.19-2.13-1.58,1.05-.42,2.05S470,313,474.94,312.89Z" transform="translate(-271.48 -148.25)"/><path class="cls-3" d="M471.61,316.94s.47-1.55-2.26-3.55-4.28-3.58-5.3-2.92-1.35.92-.6,1.67S468.36,316.9,471.61,316.94Z" transform="translate(-271.48 -148.25)"/><path class="cls-3" d="M467.34,318.76a4.15,4.15,0,0,0-1.25-2.7c-1.23-1.17-5.35-4.42-6.23-3.8-.5.69-1.06.69-1.12,1.07s2.68,4.93,5.68,5.43S467.34,318.76,467.34,318.76Z" transform="translate(-271.48 -148.25)"/><path class="cls-3" d="M460.74,321.89A1.23,1.23,0,0,0,461.8,320c-.81-1.78-3.63-6.48-6.31-6s-1.91,1.92-1.91,1.92a47.35,47.35,0,0,1,4.16,4.78C458.49,322,459.08,322.15,460.74,321.89Z" transform="translate(-271.48 -148.25)"/><path class="cls-3" d="M456.64,324.2s1.28,0,.19-1.5-5-8.31-6.89-8.28c-.64.41-.39,3.22.77,5.06S453.66,324.55,456.64,324.2Z" transform="translate(-271.48 -148.25)"/><path class="cls-3" d="M451.61,325.8s1.44-.07.47-1.85-2-2.87-2.28-2.59,0,4.44,0,4.44Z" transform="translate(-271.48 -148.25)"/><path class="cls-3" d="M406.49,272.31a1.6,1.6,0,0,1-.63-2c.58-1.2,7.8-5.62,15.94-5.45,3.81.33,15.23,2.66,15.4,3.71a11.91,11.91,0,0,0-.42,2.46s-1.42,17.1-1,18c-2-.14-2.67-.57-2.83-1.65,0,0,.06-.49-.82-.61s-2.12,3.68-2.87,3.75-2.06-3.19-3.31-3.07-1.75,3.07-2.82,3.07-1.87-3.07-2.9-3-2.22,2-3.47,1.56-1.32-1.81-.57-2.88,4.29-6.56,4-7.56-3.45-3.25-3.45-3.25-.3-1.44.25-1.44.12.69.56.75,2.44.38,2.56-.12-.56-3.44-2.25-3.44-1.12,1.68-1.69,1.56-.22-.75-1.92-.81-1.77-.94-3.39-.94S407,270.91,406.49,272.31Z" transform="translate(-271.48 -148.25)"/><path class="cls-3" d="M453.32,272.58s-1.75-1.44-.5-2.56,2.08-1,2.92-.3,0,2.55-.42,2.86S453.32,272.58,453.32,272.58Z" transform="translate(-271.48 -148.25)"/><path class="cls-3" d="M437.2,282.14s.41-.5.75,0,5.5,8.49,4.41,9.83-3.09.58-4.75-4.59A21,21,0,0,0,437.2,282.14Z" transform="translate(-271.48 -148.25)"/><path class="cls-3" d="M446,293.14s-.76.11-.67-5.28,1.32-7.35,3.07-9.8,4.7-6.35,5.29-6.7c-.5,2.09-.3,4.62.87,6.11s-1.22,2.12-1.89,3.17-4.53,5.62-4.63,8.43S447.87,293.23,446,293.14Z" transform="translate(-271.48 -148.25)"/><path class="cls-3" d="M472.56,363s-1.64-2-.75-1.91,3.2,1,3.2-.18.18-1.45,2.09-1.41,7,.26,4.6,2.52c-.88,1,.25,1.52.25,1.74s-5.19.9-6.75.9S472.92,365.2,472.56,363Z" transform="translate(-271.48 -148.25)"/><path class="cls-3" d="M493.7,354.27s-1.13-.13-.5-3.88,2.12-15,4.75-14.37c1-3.38.62-7.5,2.25-7.25s3.37,1.75,2.25,3.87S493.7,354.27,493.7,354.27Z" transform="translate(-271.48 -148.25)"/><path class="cls-3" d="M496.07,351.52S505.32,327,507,327.64s2,2.13.62,3.88S496.07,351.52,496.07,351.52Z" transform="translate(-271.48 -148.25)"/><path class="cls-3" d="M502.07,344.64s9.63-20.62,12.38-19C515.82,326.89,502.07,344.64,502.07,344.64Z" transform="translate(-271.48 -148.25)"/><path class="cls-3" d="M496.07,356.39s-.29-1.08,1.21-2.42,5-8.33,6.17-7.41-2.75,4.58-2.75,4.58.16,1.25,1,.75S515,337,515,337s1.75-.91,2.25-.33-.33,2.08-1.42,2.83-3.08,2.92-1.66,3.09-.09,1.16-1.25,1.66-4.92,1.34-4.84,2.09.17,2.75-.75,3.08S496.7,356.72,496.07,356.39Z" transform="translate(-271.48 -148.25)"/><path class="cls-3" d="M504.86,344.81s6.5-8.09,6.67-7.84a2,2,0,0,1-.33,1.92c-.59.92-5.5,6.33-5.5,6.33S504.69,345.64,504.86,344.81Z" transform="translate(-271.48 -148.25)"/><path class="cls-3" d="M513,335.39a1.64,1.64,0,0,1-1.09-1.75c.25-1.25,2.34-.83,2.34-.83A3.53,3.53,0,0,0,513,335.39Z" transform="translate(-271.48 -148.25)"/><path class="cls-3" d="M464,377.31s5.33-4.25,6.25-4.25a10.72,10.72,0,0,0,3.67-.34c.83-.41,5.16-3.5,5.16-3.5s1.34,0-.16,1.09-5.17,5.16-5.42,5.16-3.33-.16-4,.59-2.5,2.33-2.5,2.33-.5-1.25-1.08-1A4.31,4.31,0,0,1,464,377.31Z" transform="translate(-271.48 -148.25)"/><path class="cls-3" d="M466.53,381s4.25-4.49,5.25-4.33a2.52,2.52,0,0,1-.42,2.5,42.58,42.58,0,0,1-2.58,3.75C468.45,383.14,467,380.89,466.53,381Z" transform="translate(-271.48 -148.25)"/><path class="cls-3" d="M472.11,382.89a4.84,4.84,0,0,1,1-2.92c1.09-1.75,1.75-2.58,2.5-2.5s0,.59-.5,1.17-2.16,3.08-2.08,3.83S472.11,382.89,472.11,382.89Z" transform="translate(-271.48 -148.25)"/><path class="cls-3" d="M474,383.14s1.5-3.25,2.42-3.08C475.61,381.64,475,383.22,474,383.14Z" transform="translate(-271.48 -148.25)"/><path class="cls-3" d="M477.7,385s-2.25-1.16-1-2.83,1.58-3.5,1-3.83.5-1.09,1.5-.34.08,3.17-.59,4.17A8.44,8.44,0,0,0,477.7,385Z" transform="translate(-271.48 -148.25)"/><path class="cls-3" d="M478.36,387.14a13.94,13.94,0,0,0,2.42-2.92c1-1.66,1.92-2.24,2.67-2.16s-1.17,2.08-1.17,2.08-.42,3.34-.42,3.75S480.53,386.89,478.36,387.14Z" transform="translate(-271.48 -148.25)"/><path class="cls-3" d="M485.28,388.22a2.43,2.43,0,0,1,.17-3.16,10,10,0,0,0,.41-3,2.42,2.42,0,0,1,1.75,2.83,13.17,13.17,0,0,0-.66,3.5C487,389.56,485.61,390.22,485.28,388.22Z" transform="translate(-271.48 -148.25)"/><path class="cls-3" d="M484.61,380s1,1,1.59.5,1.41-6.33.33-6.16c-.5,1.5-1.62,4.64-1.77,4.92A1.75,1.75,0,0,0,484.61,380Z" transform="translate(-271.48 -148.25)"/><path class="cls-3" d="M483,380.52a2.45,2.45,0,0,1-1.63-.69c-.87-.75-2-2.56-.81-4.19s1.94-2.69,1.94-2.69,1.5,1.07,2.37,1.63C485,376,483.57,380.64,483,380.52Z" transform="translate(-271.48 -148.25)"/><path class="cls-3" d="M475.32,376.08s-1.12-.56.13-.94a8,8,0,0,0,3.25-2.69,8.57,8.57,0,0,1,2.06-1.68l.81,1.06s-.37.56-1.19,1.75-.62,2.56-1.5,2.5S475.32,376.08,475.32,376.08Z" transform="translate(-271.48 -148.25)"/><path class="cls-3" d="M494.36,334s2.54-5.25,2.84-5.25.2,5.38.2,5.38Z" transform="translate(-271.48 -148.25)"/><path class="cls-3" d="M500.51,327s1.94-3.62,2.12-3.43a35.46,35.46,0,0,1,.13,4.43S500.88,326.77,500.51,327Z" transform="translate(-271.48 -148.25)"/><path class="cls-3" d="M504.45,327.33l-.32-5.38a10.52,10.52,0,0,1,2.44.13c0,.19-.69,1.62-1,2.37S504.82,327.33,504.45,327.33Z" transform="translate(-271.48 -148.25)"/><path class="cls-3" d="M506.38,320.2s1.94-3.62,2.13-3.5.56,5.32.25,5.38S506.38,320.2,506.38,320.2Z" transform="translate(-271.48 -148.25)"/><path class="cls-3" d="M509.32,327.39s-1.5-.81-1.12-1.44,1.12-2.75,2.25-2.5a10.82,10.82,0,0,1-.25,3.63S510.38,327.27,509.32,327.39Z" transform="translate(-271.48 -148.25)"/><path class="cls-3" d="M511.86,348.22s-.41-.58.67-1.41,1.58-.42,1.58-.42S512.28,348.81,511.86,348.22Z" transform="translate(-271.48 -148.25)"/><path class="cls-3" d="M497.85,359s-.87-1.25-.19-1.79S501.2,355,501.2,355s.25.6-2,2.38Z" transform="translate(-271.48 -148.25)"/><path class="cls-2" d="M419.32,268.14s.2-.87,2.13-.87,7-.44,7.62,1.81-1.44,1.94-1.44,1.94.38-2.44-1.56-2.32.44,1.63-.75,2.07S419.51,270.33,419.32,268.14Z" transform="translate(-271.48 -148.25)"/><path class="cls-3" d="M450.7,270.77s-1.59-2.09,0-3.09,2.33,1.17,1.91,1.71S451.36,270.85,450.7,270.77Z" transform="translate(-271.48 -148.25)"/><path class="cls-3" d="M424,294.22a2,2,0,0,1,.41-2.41,8.27,8.27,0,0,0,1.67-2.09s2.5,2.42,2.5,3.25.08,3.75-1.5,3.67A3,3,0,0,1,424,294.22Z" transform="translate(-271.48 -148.25)"/><path class="cls-3" d="M429.86,301.31s-2.58-2.42-2.08-2.92,1.5-.83,1.5-1.58.75-1.42,1.17-.84,2.25.92,2.33,1.34S431,301.22,429.86,301.31Z" transform="translate(-271.48 -148.25)"/><path class="cls-3" d="M432.28,301.64s.58-2.25,1.33-2.17,1.84,2.17,1.84,2.17S432.69,302.14,432.28,301.64Z" transform="translate(-271.48 -148.25)"/><path class="cls-3" d="M435,298.47a1.52,1.52,0,0,1,0-1.75,7.63,7.63,0,0,0,1.16-3.25c-.08-.75,2.33,2,2.67,3s.17,3.84-.33,3.84S435.7,300.81,435,298.47Z" transform="translate(-271.48 -148.25)"/><path class="cls-3" d="M436,290.83s.37-1.06,1.12-.38,3.32,3.88,2.82,4.5-2.07-1.75-2.82-2.75A14.39,14.39,0,0,0,436,290.83Z" transform="translate(-271.48 -148.25)"/><path class="cls-3" d="M440.63,296.52s1.13-.63,1.25.18-.25,1.63.63,2a1.63,1.63,0,0,1,1.06,1.69c0,.69-.62,1.06-.81.56a1.38,1.38,0,0,0-1.25-.68,1.32,1.32,0,0,1-1.06-1.5C440.51,297.77,440.63,296.52,440.63,296.52Z" transform="translate(-271.48 -148.25)"/><path class="cls-3" d="M439.82,301.14s.75.25.69.44S439.51,302.14,439.82,301.14Z" transform="translate(-271.48 -148.25)"/><path class="cls-3" d="M424.78,301.81a3.37,3.37,0,0,1,.79-.88,2.21,2.21,0,0,0,.79-1.54c0-.42.42-.33.46.21s.08,1.41.46,1.5.83.87.08.71A12.47,12.47,0,0,0,424.78,301.81Z" transform="translate(-271.48 -148.25)"/><path class="cls-3" d="M431.57,289.52s-.08-.8.46-.3c1.08,1.3,2.62,1.13,2.62,1.59s.46,5-.66,5a4.41,4.41,0,0,1-3.46-2c-.67-1.17-.75-1.79-.21-1.88S431.57,291.39,431.57,289.52Z" transform="translate(-271.48 -148.25)"/><path class="cls-3" d="M367.78,299.81s-3.5.16-3-2,4.16-1.34,4.16-1.34,5.5-.83,5.67.17S371.11,299,367.78,299.81Z" transform="translate(-271.48 -148.25)"/><path class="cls-3" d="M478.82,299.81s3.5.16,3-2-4.17-1.34-4.17-1.34-5.5-.83-5.66.17S475.48,299,478.82,299.81Z" transform="translate(-271.48 -148.25)"/><path class="cls-3" d="M396,333s-.84,4.34,0,4.25S396,333,396,333Z" transform="translate(-271.48 -148.25)"/><path class="cls-3" d="M450.62,333.29s1.43,4.24.57,4.35S450.62,333.29,450.62,333.29Z" transform="translate(-271.48 -148.25)"/><path class="cls-3" d="M413.44,358.83h2.32v1.5S411.16,361.11,413.44,358.83Z" transform="translate(-271.48 -148.25)"/><path class="cls-3" d="M410.51,363.39s-.44-2.31.5-2.31,2.93.81,2.75,1.12A5,5,0,0,1,410.51,363.39Z" transform="translate(-271.48 -148.25)"/><path class="cls-3" d="M415.13,362.77s.5-.44.5.75.81,1.31.81,1.75-.81.43-.81,1.37-3.69.31-2.69-.5A10.47,10.47,0,0,0,415.13,362.77Z" transform="translate(-271.48 -148.25)"/><polygon class="cls-3" points="145.71 210.52 145.71 215.77 148.03 215.77 148.03 210.45 145.71 210.52"/><path class="cls-3" d="M415.82,370.64a5.45,5.45,0,0,1,.69-2.5c.75-1.5,1.5-2.75,2.56-2.69s1.31.63.94.75-.5,1.13-.5,2.25S418.76,371.52,415.82,370.64Z" transform="translate(-271.48 -148.25)"/><path class="cls-3" d="M395.13,385.7s-1.12-.5-.06-1.68a59.36,59.36,0,0,0,4-6.44c1.37-2.31,9.25-12.69,12.81-12.81a10.29,10.29,0,0,0-.69,3.68c0,.88-4.43,4.57-5.5,6.69a17.89,17.89,0,0,1-4,5.31C400.32,381.64,396.13,385.52,395.13,385.7Z" transform="translate(-271.48 -148.25)"/><path class="cls-3" d="M400.94,392s-.62-2,1.19-6.5a51.49,51.49,0,0,1,6.69-11.88c2.06-2.5,3.56-5,4.44-5s1.68,1.75,1.06,2.38a17.23,17.23,0,0,0-4.13,6.93C409.38,381.27,409.69,384.33,400.94,392Z" transform="translate(-271.48 -148.25)"/><path class="cls-3" d="M406.82,397.7A106.72,106.72,0,0,1,410,383.52c2.12-6.88,4-11.5,6.75-11.32s.37,1.25.37,1.25-.87-1.18-2.56,8.63C413.07,389.45,408.51,398.45,406.82,397.7Z" transform="translate(-271.48 -148.25)"/><path class="cls-3" d="M419.19,372.52s.82-1,.88-.25a78.86,78.86,0,0,1-.56,10.25c-.57,4.56-.57,10.5-.94,11.75s-3.5,8.25-4.25,8.12-.44-9.69.19-11.94,1.37-8.56,2.25-11.93A25.47,25.47,0,0,1,419.19,372.52Z" transform="translate(-271.48 -148.25)"/><path class="cls-3" d="M433.09,358.83h-2.31v1.5S435.37,361.11,433.09,358.83Z" transform="translate(-271.48 -148.25)"/><path class="cls-3" d="M436,363.39s.43-2.31-.5-2.31-2.94.81-2.75,1.12A5,5,0,0,0,436,363.39Z" transform="translate(-271.48 -148.25)"/><path class="cls-3" d="M431.4,362.77s-.5-.44-.5.75-.81,1.31-.81,1.75.81.43.81,1.37,3.69.31,2.69-.5A10.47,10.47,0,0,1,431.4,362.77Z" transform="translate(-271.48 -148.25)"/><polygon class="cls-3" points="157.86 210.52 157.86 215.77 155.55 215.77 155.55 210.45 157.86 210.52"/><path class="cls-3" d="M430.71,370.64a5.34,5.34,0,0,0-.68-2.5c-.75-1.5-1.5-2.75-2.57-2.69s-1.31.63-.93.75.5,1.13.5,2.25S427.78,371.52,430.71,370.64Z" transform="translate(-271.48 -148.25)"/><path class="cls-3" d="M451.4,385.7s1.13-.5.06-1.68a59.36,59.36,0,0,1-4-6.44c-1.37-2.31-9.25-12.69-12.81-12.81a10.29,10.29,0,0,1,.69,3.68c0,.88,4.44,4.57,5.5,6.69a17.89,17.89,0,0,0,4,5.31C446.21,381.64,450.4,385.52,451.4,385.7Z" transform="translate(-271.48 -148.25)"/><path class="cls-3" d="M445.59,392s.62-2-1.19-6.5a51.12,51.12,0,0,0-6.69-11.88c-2.06-2.5-3.56-5-4.43-5s-1.69,1.75-1.07,2.38a17.11,17.11,0,0,1,4.13,6.93C437.15,381.27,436.84,384.33,445.59,392Z" transform="translate(-271.48 -148.25)"/><path class="cls-3" d="M439.71,397.7a107.63,107.63,0,0,0-3.18-14.18c-2.13-6.88-4-11.5-6.75-11.32s-.38,1.25-.38,1.25.88-1.18,2.56,8.63C433.46,389.45,438,398.45,439.71,397.7Z" transform="translate(-271.48 -148.25)"/><path class="cls-3" d="M427.34,372.52s-.81-1-.88-.25a77.69,77.69,0,0,0,.57,10.25c.56,4.56.56,10.5.93,11.75s3.5,8.25,4.25,8.12.44-9.69-.18-11.94-1.38-8.56-2.25-11.93A25.74,25.74,0,0,0,427.34,372.52Z" transform="translate(-271.48 -148.25)"/><path class="cls-3" d="M421.57,359.14s.56,1.13,1.44,1.13,1.5-.07,1.5.56.69,2.31-.56,2.31a2.67,2.67,0,0,1-2.63-1.75A5.37,5.37,0,0,1,421.57,359.14Z" transform="translate(-271.48 -148.25)"/><path class="cls-3" d="M421.69,366.83s.57-1.81,1.44-1.81,1.57.12,1.57,1.06.62,6.37-1.13,6.5S421.44,370.14,421.69,366.83Z" transform="translate(-271.48 -148.25)"/><path class="cls-3" d="M423,374.33s2.5.81,2.68,4.81-.18,20.25-.18,20.25-1.57,6.88-2.57,6.56-2.62-7.81-2.62-7.81l.68-18.87S421.13,374.33,423,374.33Z" transform="translate(-271.48 -148.25)"/><rect class="cls-3" x="127.25" y="154.73" width="49" height="17.5"/><polygon class="cls-3" points="129.67 209.11 127.29 207.77 127.34 173.8 129.67 173.8 129.67 209.11"/><polygon class="cls-3" points="134.21 209.11 131.21 209.1 131.27 173.8 134.21 173.8 134.21 209.11"/><polygon class="cls-3" points="138.01 209.11 135.63 209.1 135.67 173.8 138.01 173.8 138.01 209.11"/><polygon class="cls-3" points="141.67 209.11 139.29 209.1 139.34 173.8 141.67 173.8 141.67 209.11"/><polygon class="cls-3" points="145.59 209.11 143.21 209.1 143.25 173.8 145.59 173.8 145.59 209.11"/><polygon class="cls-3" points="149.25 209.11 146.88 209.1 146.92 173.8 149.25 173.8 149.25 209.11"/><polygon class="cls-3" points="153.62 209.11 150.71 209.1 150.76 173.8 153.62 173.8 153.62 209.11"/><polygon class="cls-3" points="157.59 209.11 155.21 209.1 155.25 173.8 157.59 173.8 157.59 209.11"/><polygon class="cls-3" points="161.25 209.11 158.88 209.1 158.92 173.8 161.25 173.8 161.25 209.11"/><polygon class="cls-3" points="165 209.11 162.63 209.1 162.67 173.8 165 173.8 165 209.11"/><polygon class="cls-3" points="167.96 209.11 166.38 209.1 166.41 173.8 167.96 173.8 167.96 209.11"/><polygon class="cls-3" points="171.75 209.11 169.29 209.1 169.34 173.8 171.75 173.8 171.75 209.11"/><polygon class="cls-3" points="176.14 207.89 173.17 209.02 173.17 173.8 176.14 173.8 176.14 207.89"/><path class="cls-2" d="M413.07,269.46a1.36,1.36,0,0,1,1.2-.76c.86,0,1.86.51,1.67.76S414,270.58,413.07,269.46Z" transform="translate(-271.48 -148.25)"/><path class="cls-3" d="M393.86,269.47s-.5-1.66.58-1.58.84,1.58,1.25,1.58.75.67,0,1.67-1.33.92-1.25-.75C394.44,270.39,393.82,269.81,393.86,269.47Z" transform="translate(-271.48 -148.25)"/><path class="cls-2" d="M295.66,266c-1.44-.63-4-1.55-7.73-2.75l-4.18-1.35q-2.56-.83-4.47-1.26a3.06,3.06,0,0,0-1.34-.14,2.72,2.72,0,0,0-.69,1.06l-.54,1.07-.91-.29c.55-1.54.91-2.58,1.09-3.11l1.2-3.81.94-3.11a18.37,18.37,0,0,1,1.61-3.7,9,9,0,0,1,2.77-3,8.15,8.15,0,0,1,3.84-1.45,11,11,0,0,1,4.51.54,11.42,11.42,0,0,1,7,5.82,12,12,0,0,1,.47,9.42l-.6,1.72c-.62,1.68-1,2.75-1.15,3.2-.25.76-.5,1.75-.77,3l-.69-.22Zm.92-3.07a23.89,23.89,0,0,0,1.37-3.27,9,9,0,0,0-.09-6.81q-1.67-3.45-6.49-5c-2.8-.91-5.18-.87-7.12.12s-3.37,2.89-4.28,5.72a24.42,24.42,0,0,0-.83,3.61,27.45,27.45,0,0,0,3.08,1.18l9.42,3.05C293.38,262.07,295,262.54,296.58,262.92Z" transform="translate(-271.48 -148.25)"/><path class="cls-2" d="M296.29,239.05l3.33,1.64,1.92.94c1.2.59,2.08,1,2.65,1.25.73-1.24,1.47-2.61,2.2-4.09a21.59,21.59,0,0,0,1.1-2.57,7.16,7.16,0,0,0,.33-1.56c-.68-.62-1.57-1.34-2.65-2.16l.44-.88q2.81,1.83,3.79,2.33l.63.27c-.41,1.07-.86,2.09-1.35,3.07l-1.07,2.07q-1.8,3.42-2.6,5c-.51,1-1.16,2.43-1.95,4.18l-.85-.42.2-.41a3.24,3.24,0,0,0,.49-1.57c-.06-.28-.35-.59-.89-.94s-1.78-1-3.73-2l-7.45-3.68c-1.22-.6-2.23-1.07-3-1.39a6.52,6.52,0,0,0-1.48-.5.87.87,0,0,0-.49.11,4,4,0,0,0-.78,1l-.62,1-.85-.42.71-1.44.74-1.39c.42-.77.73-1.36.94-1.77l2.44-5.15,1.18-2.43c.4-.82.84-1.64,1.33-2.45a17.1,17.1,0,0,0,3.91,2.63l-.44.9a20.11,20.11,0,0,0-2.56-1.08,12.17,12.17,0,0,0-2.5,3.57c-.6,1.21-1.17,2.51-1.72,3.9.85.41,1.7.83,2.53,1.28l2.08,1.06,2.75,1.35c.49-.84.91-1.6,1.24-2.28a16,16,0,0,0,1.55-3.69c0-.36-.41-.72-1.19-1.11l-.88-.43.45-.91c1.33.74,2.41,1.31,3.22,1.71s1.89.89,3.09,1.41l-.45.9-.79-.39c-.86-.43-1.48-.52-1.84-.29a12.61,12.61,0,0,0-2,3.38C297,237.43,296.62,238.22,296.29,239.05Z" transform="translate(-271.48 -148.25)"/><path class="cls-2" d="M298,216.42q1.74,1.32,3.77,2.71l7.12,4.9a23.6,23.6,0,0,0,4.36,2.67c.4.06.88-.32,1.44-1.13l.58-.85.78.54c-1,1.41-1.86,2.52-2.43,3.35s-1.37,2.06-2.59,4l-.79-.54.76-1.1a2.11,2.11,0,0,0,.49-1.12,1.47,1.47,0,0,0-.6-.82q-.54-.47-3.53-2.63l-6.66-4.58-2.61-1.73a4.38,4.38,0,0,0-2.2-1c-.38,0-.85.46-1.41,1.27l-.42.61-.78-.54q1.11-1.49,2.72-3.83,1-1.38,2-3.12c.48-.77.85-1.34,1.11-1.72,1.35-2,2.71-3.16,4.05-3.55a4.41,4.41,0,0,1,3.89.71,5.93,5.93,0,0,1,2.08,2.56,6.77,6.77,0,0,1,.52,3.57,7.66,7.66,0,0,1-1.31,3.54,11.52,11.52,0,0,1-1.5,1.67l-1.1-.4a9.33,9.33,0,0,0,1.51-1.61,4.23,4.23,0,0,0,.79-3.39,4.81,4.81,0,0,0-2.16-3,4.33,4.33,0,0,0-3.46-.82,5.47,5.47,0,0,0-3.14,2.48A10.32,10.32,0,0,0,298,216.42Z" transform="translate(-271.48 -148.25)"/><path class="cls-2" d="M320.78,207.56l-5.56,6.53,1.2,2.35a13,13,0,0,0,1.62,2.68.6.6,0,0,0,.5.18,2.33,2.33,0,0,0,.8-.56l1.05-1,.72.62q-1,1-2.16,2.37c-.92,1.09-1.7,2.06-2.35,2.93l-.72-.62.27-.35a3.24,3.24,0,0,0,.71-1.16,2.39,2.39,0,0,0-.29-1.1c-.66-1.47-1.39-3-2.2-4.69l-4.53-9.21c-1.2-2.45-2.11-4.2-2.71-5.23l.65-.77,18.43,5.83a17.89,17.89,0,0,0,2.32.65,1.5,1.5,0,0,0,.78-.1,4.52,4.52,0,0,0,1.12-1l.73.62c-.89.93-1.71,1.84-2.47,2.73s-1.61,1.95-2.73,3.38l-.73-.62.88-1.18a2.53,2.53,0,0,0,.48-.82.51.51,0,0,0-.18-.44,5.94,5.94,0,0,0-1.37-.58Zm-6.15,5.31,4.85-5.69-9.35-3.05Z" transform="translate(-271.48 -148.25)"/><path class="cls-2" d="M333.43,190.51c1.66.47,3.64,1,5.95,1.49l4.6,1.06a5,5,0,0,0,1.49.2A1,1,0,0,0,346,193l.3-.25.61.73c-.67.47-1.25.9-1.72,1.3a16.07,16.07,0,0,0-1.29,1.22l-8.68-2.18c-1.6-.39-3.24-.72-4.91-1l-.22-.49c.47-.32.81-.58,1-.76a5.51,5.51,0,0,0,2.14-3.48,4.52,4.52,0,0,0-1.16-3.57,3.94,3.94,0,0,0-2.87-1.58,4.86,4.86,0,0,0-3.33,1.36,8.59,8.59,0,0,0-2,2.46c.94,1.3,2,2.66,3.16,4.06l4.69,5.61a32.65,32.65,0,0,0,4,4.38c.38.19.92,0,1.63-.6l.88-.74.61.73c-1.3,1-2.37,1.84-3.19,2.53-.65.55-1.81,1.56-3.47,3.05l-.61-.74.85-.71c.65-.54.92-1,.8-1.41a36.7,36.7,0,0,0-3.65-4.73l-4.68-5.58c-2-2.4-3.2-3.69-3.58-3.85s-.95.07-1.73.71l-.61.52-.61-.73c1.45-1.13,2.55-2,3.3-2.63.5-.42,1.2-1,2.11-1.86s1.83-1.63,2.31-2a10.59,10.59,0,0,1,3.34-2.08,4.44,4.44,0,0,1,2.57-.07,4.39,4.39,0,0,1,2.13,1.48,5.39,5.39,0,0,1,1.26,3.85A8,8,0,0,1,333.43,190.51Z" transform="translate(-271.48 -148.25)"/><path class="cls-2" d="M342.32,172.75q1.1,2,2.45,4.11l4.68,7.24a27.23,27.23,0,0,0,3.08,4.33c.31.19.87,0,1.69-.5l.93-.6.52.8c-1.51.89-2.77,1.66-3.8,2.32s-2.25,1.5-3.65,2.49l-.52-.8,1.05-.68a2.13,2.13,0,0,0,.93-.91,1.61,1.61,0,0,0-.26-1.08c-.55-1-1.34-2.35-2.35-3.92l-4.69-7.26c-.92-1.43-1.8-2.73-2.63-3.88l-1.27.82a21,21,0,0,0-3.29,2.33c-.14.23,0,.69.33,1.4l.92,1.81-.78.51-1-1.53c-.4-.61-1-1.45-1.85-2.53q6.78-4.26,8-5l6.83-4.54q1.15,2.29,2.41,4.32l-.79.51-1.2-1.59c-.42-.54-.71-.84-.87-.89a1.15,1.15,0,0,0-.74.2c-1,.52-2,1.16-3.18,1.91Z" transform="translate(-271.48 -148.25)"/><path class="cls-2" d="M370.6,160.68,370.27,171c-.13,3.88-.15,7.24-.08,10.07l-.55.23q-1-1-5.63-5.1l-9.34-8.2,4.65,10.74c1.08,2.51,1.79,3.88,2.13,4.14s1,.16,2.05-.29l.5-.22.38.88c-1.29.48-2.33.89-3.12,1.24-.57.24-1.7.77-3.38,1.57l-.38-.87.88-.38a2.09,2.09,0,0,0,1.09-.79,1.6,1.6,0,0,0-.05-1.11c-.44-1.35-1-2.78-1.64-4.28l-3.4-7.86a36.85,36.85,0,0,0-1.75-3.71,1.08,1.08,0,0,0-.71-.55,2.77,2.77,0,0,0-1.49.35l-.73.31-.37-.88c1.6-.61,2.61-1,3-1.19s1.24-.57,2.16-1.05q3.27,3,7.37,6.6l6.84,6,.3-8.4c.11-2.94.16-6.44.17-10.52,1.16-.42,2-.74,2.44-.94s1.49-.68,2.86-1.35l.37.88-.88.38c-.81.35-1.24.7-1.29,1.06a9.61,9.61,0,0,0,1.05,3.17l4.39,10.15a14.94,14.94,0,0,0,2,3.77c.34.25.93.2,1.79-.18l.78-.33.38.87c-1.29.48-2.51,1-3.67,1.47s-2.58,1.16-3.94,1.82l-.38-.87.9-.39c.71-.31,1.08-.66,1.09-1a20.19,20.19,0,0,0-1.56-4.22Z" transform="translate(-271.48 -148.25)"/><path class="cls-2" d="M387.12,164.12l.84,3.62.5,2.07c.31,1.3.54,2.25.71,2.84,1.43-.22,3-.51,4.57-.89a21,21,0,0,0,2.68-.78,7.11,7.11,0,0,0,1.42-.73c0-.92,0-2.06,0-3.42l.95-.22c.25,2.22.45,3.69.62,4.41l.18.66c-1.08.35-2.16.66-3.23.9l-2.28.49c-2.52.51-4.36.91-5.54,1.18s-2.62.65-4.47,1.15l-.21-.93.44-.1a3.21,3.21,0,0,0,1.53-.62,1.83,1.83,0,0,0,.16-1.28c-.08-.64-.36-2-.85-4.13l-1.88-8.09c-.31-1.33-.6-2.4-.86-3.24a7.29,7.29,0,0,0-.55-1.46.84.84,0,0,0-.4-.3,4,4,0,0,0-1.3.05l-1.14.14-.21-.93,1.56-.36,1.54-.31c.87-.16,1.52-.29,2-.4l5.53-1.38,2.63-.63c.89-.21,1.8-.39,2.74-.53a16.84,16.84,0,0,0,.45,4.7l-1,.23a19.54,19.54,0,0,0-.79-2.66,12,12,0,0,0-4.34.33c-1.32.3-2.69.69-4.11,1.14.23.92.43,1.84.62,2.77l.5,2.28.69,3c1-.15,1.82-.31,2.56-.48a16,16,0,0,0,3.83-1.15c.27-.24.3-.77.11-1.62l-.23-1,1-.23c.27,1.5.52,2.69.72,3.58s.51,2,.87,3.28l-1,.23-.2-.86c-.22-.94-.53-1.48-.94-1.6a12.15,12.15,0,0,0-3.9.57Q388.4,163.72,387.12,164.12Z" transform="translate(-271.48 -148.25)"/><path class="cls-2" d="M403.85,152.91l.66,10.44c.15,2.38.3,4,.45,5a2.37,2.37,0,0,0,.44,1.28,2.82,2.82,0,0,0,1.44.25l1,0,.06.95c-1.09,0-2.06,0-2.93.08-.61,0-2,.16-4.15.37l-.06-1,1.07-.07a2,2,0,0,0,1.24-.35,1.76,1.76,0,0,0,.3-1.1c0-1.11,0-2.62-.13-4.53l-.48-7.5c-.09-1.41-.19-2.81-.31-4.19a2.69,2.69,0,0,0-.3-1.18,2,2,0,0,0-.63-.55,2,2,0,0,0-1.09-.18l-.92.06-.06-1c1.26,0,2.22,0,2.88-.07s1.49-.13,2.33-.26c1.06,1.16,2.05,2.28,3,3.38s1.91,2.2,2.91,3.31l5.46,6c2,2.16,3.39,3.66,4.26,4.5l-.62-9.7a46.55,46.55,0,0,0-.64-6.64c-.17-.37-.75-.57-1.75-.61l-1.12,0-.06-.95c1.59,0,2.83-.07,3.71-.13s2.1-.17,3.54-.33l.06.95-1.14.07c-.91.06-1.42.41-1.52,1-.06.42,0,2.63.29,6.63l.43,6.81q.18,2.75.66,6.56a14.77,14.77,0,0,1-2.37-.32,1.79,1.79,0,0,1-.65-.43c-1.18-1.17-2.41-2.47-3.71-3.91Z" transform="translate(-271.48 -148.25)"/><path class="cls-2" d="M437.33,151c-.26,1.49-.47,3.07-.64,4.74l-.85,8.59a28.28,28.28,0,0,0-.3,5.3c.13.34.67.56,1.64.66l1.11.11-.1,1c-1.73-.25-3.21-.43-4.42-.55s-2.69-.24-4.41-.34l.1-.94,1.24.12a2,2,0,0,0,1.29-.14,1.5,1.5,0,0,0,.47-1c.22-1.17.42-2.68.61-4.54l.86-8.6q.26-2.53.36-4.68l-1.5-.15a21.44,21.44,0,0,0-4-.22c-.26.09-.47.52-.63,1.3l-.4,2-.93-.09.21-1.79c.07-.72.11-1.77.13-3.13l9.36,1,8.18.71c-.36,1.68-.63,3.3-.82,4.88l-.93-.1.05-2a2.79,2.79,0,0,0-.13-1.24,1.08,1.08,0,0,0-.7-.31c-1.07-.19-2.3-.35-3.68-.49Z" transform="translate(-271.48 -148.25)"/><path class="cls-2" d="M454.38,164.1a10.62,10.62,0,0,1,5.55-6.59,11.55,11.55,0,0,1,8.92-.19c3.25,1.1,5.49,2.86,6.72,5.26a10,10,0,0,1,.36,8A11.59,11.59,0,0,1,460.84,178a11.06,11.06,0,0,1-4.83-3.05,9.43,9.43,0,0,1-2.24-4.86A12.37,12.37,0,0,1,454.38,164.1Zm3.25-.21a14.24,14.24,0,0,0-.83,6,8.73,8.73,0,0,0,1.7,4.59,7.9,7.9,0,0,0,3.77,2.61,7.47,7.47,0,0,0,4.16.27,7.27,7.27,0,0,0,3.59-2.16,12.29,12.29,0,0,0,2.6-4.6,12.63,12.63,0,0,0,.74-5.55,7.85,7.85,0,0,0-1.74-4.21,8.47,8.47,0,0,0-3.89-2.53,7.92,7.92,0,0,0-4.2-.36,6.93,6.93,0,0,0-3.52,1.95A10,10,0,0,0,457.63,163.89Z" transform="translate(-271.48 -148.25)"/><path class="cls-2" d="M481.22,174.91l-2.37,4.63a10.29,10.29,0,0,0-1.35,3.37c0,.41.45.82,1.24,1.22l.94.48-.44.85c-1.64-.92-2.95-1.63-3.95-2.14s-2.32-1.14-4-1.9l.44-.84,1.06.54c.75.38,1.29.47,1.62.26a11.74,11.74,0,0,0,1.91-3.11l5.2-10.17a10.35,10.35,0,0,0,1.34-3.32c0-.4-.45-.8-1.25-1.2l-1-.49.43-.85c1.43.81,2.74,1.52,3.91,2.12l7.67,3.73a21.22,21.22,0,0,1,2.18,1.27,18.4,18.4,0,0,0-2.55,3.85l-.84-.44a19,19,0,0,0,1-2.67,15.81,15.81,0,0,0-3.41-2.35,31,31,0,0,0-3.25-1.44c-.7,1.12-1.29,2.15-1.78,3.1l-2.19,4.29c.51.3,1,.57,1.54.84,1.32.67,2.5,1.23,3.53,1.66a1.07,1.07,0,0,0,.79.13,2.74,2.74,0,0,0,.83-.89l.66-1,.83.42c-.91,1.61-1.49,2.65-1.73,3.12l-1.61,3.18-.87-.44.53-1c.42-.83.53-1.41.31-1.74a13.24,13.24,0,0,0-3.4-2.08C482.68,175.61,482,175.28,481.22,174.91Z" transform="translate(-271.48 -148.25)"/><path class="cls-2" d="M516.17,185.58a17.36,17.36,0,0,0-2.92,3l-.81-.63.75-.95a2.94,2.94,0,0,0,.74-1.46,3.72,3.72,0,0,0-.73-1.71,7.92,7.92,0,0,0-1.89-2.08,5.42,5.42,0,0,0-3.69-1.33,4.06,4.06,0,0,0-3,1.65,3.73,3.73,0,0,0-.83,2,3.11,3.11,0,0,0,.41,1.91,16.52,16.52,0,0,0,2.73,3,14.82,14.82,0,0,1,2.76,3.18,3.8,3.8,0,0,1,.37,2.32,5,5,0,0,1-1.1,2.46,6.76,6.76,0,0,1-5.19,2.6,9.67,9.67,0,0,1-6.59-2.35,14.52,14.52,0,0,1-2.08-2,16.94,16.94,0,0,1-1.76-2.48,32.36,32.36,0,0,0,3.06-3.52l.8.62-.47.6a6.65,6.65,0,0,0-1,1.52,2,2,0,0,0,.1,1,6,6,0,0,0,1,1.9,9.18,9.18,0,0,0,1.73,1.74,6.36,6.36,0,0,0,4.25,1.6,4.39,4.39,0,0,0,3.31-1.76,3.84,3.84,0,0,0,.85-1.93,3.18,3.18,0,0,0-.38-1.88,12.93,12.93,0,0,0-2.34-2.62,15.41,15.41,0,0,1-3.09-3.44,4,4,0,0,1-.43-2.51,5.69,5.69,0,0,1,1.25-2.72,6.2,6.2,0,0,1,4.62-2.52,8.38,8.38,0,0,1,5.72,2.07,14.08,14.08,0,0,1,2.14,2.09A15.94,15.94,0,0,1,516.17,185.58Z" transform="translate(-271.48 -148.25)"/><path class="cls-2" d="M525.89,195.33c-1.15,1-2.31,2.08-3.5,3.26l-6.11,6.09a27.33,27.33,0,0,0-3.6,3.91c-.12.35.16.86.85,1.55l.78.79-.67.67q-1.78-1.93-3.07-3.23c-.86-.87-1.93-1.89-3.19-3.06l.67-.67.88.88a2,2,0,0,0,1.09.72,1.56,1.56,0,0,0,1-.47c.9-.76,2-1.8,3.34-3.12l6.12-6.1q1.82-1.8,3.26-3.38l-1.07-1.07a21.61,21.61,0,0,0-3-2.73c-.26-.09-.69.11-1.31.61l-1.58,1.28-.66-.66,1.3-1.25c.51-.51,1.21-1.29,2.09-2.34q5.58,5.76,6.57,6.75L532,199.5c-1.34,1.07-2.59,2.15-3.73,3.25l-.66-.66,1.3-1.51a3,3,0,0,0,.69-1,1.12,1.12,0,0,0-.35-.68c-.71-.83-1.55-1.74-2.53-2.72Z" transform="translate(-271.48 -148.25)"/><path class="cls-2" d="M531.26,222.05l-5.06-6.94-2.56.63a12.59,12.59,0,0,0-3,.94.61.61,0,0,0-.3.44,2.21,2.21,0,0,0,.36.91l.71,1.25-.78.56c-.5-.81-1.1-1.69-1.8-2.65-.83-1.15-1.6-2.15-2.29-3l.77-.56.27.35a3.27,3.27,0,0,0,1,1,2.16,2.16,0,0,0,1.13,0c1.59-.28,3.28-.63,5.08-1l10-2.26c2.66-.59,4.57-1.06,5.71-1.41l.6.82-10,16.56a18.51,18.51,0,0,0-1.18,2.1,1.44,1.44,0,0,0-.08.78,4.72,4.72,0,0,0,.68,1.32l-.77.56c-.7-1.08-1.39-2.1-2.08-3s-1.52-2-2.64-3.45l.77-.56.94,1.13a2.74,2.74,0,0,0,.68.66.48.48,0,0,0,.47-.07,6,6,0,0,0,.89-1.2Zm-3.73-7.22,4.4,6,5.15-8.37Z" transform="translate(-271.48 -148.25)"/><path class="cls-2" d="M551.46,230.89q-2.09.92-4.31,2.08l-7.64,4a26.86,26.86,0,0,0-4.58,2.68c-.22.29-.1.87.35,1.72l.52,1-.85.44q-1.12-2.37-2-4c-.57-1.08-1.28-2.37-2.15-3.86l.85-.44.58,1.1a2.08,2.08,0,0,0,.83,1,1.6,1.6,0,0,0,1.09-.16q1.64-.69,4.11-2l7.65-4q2.27-1.19,4.11-2.27l-.71-1.34a20.42,20.42,0,0,0-2-3.48c-.21-.17-.69-.1-1.42.2l-1.89.76-.44-.83,1.61-.81c.64-.34,1.54-.88,2.69-1.62q3.63,7.14,4.29,8.39l3.91,7.21q-2.38.95-4.52,2l-.43-.83,1.69-1a3.33,3.33,0,0,0,1-.79,1.18,1.18,0,0,0-.13-.76c-.44-1-1-2.11-1.62-3.34Z" transform="translate(-271.48 -148.25)"/><path class="cls-2" d="M548.16,247.48l-3.48,1.29-2,.77c-1.25.46-2.16.82-2.73,1.06.4,1.39.89,2.87,1.47,4.42a21.37,21.37,0,0,0,1.12,2.56,7.23,7.23,0,0,0,.91,1.31c.92-.08,2-.23,3.38-.45l.35.91c-2.17.53-3.61.92-4.3,1.18l-.63.26c-.49-1-.93-2.06-1.31-3.08l-.77-2.2c-.84-2.44-1.46-4.22-1.88-5.35s-1-2.51-1.72-4.28l.9-.34.16.43a3.16,3.16,0,0,0,.81,1.44,1.89,1.89,0,0,0,1.29,0c.62-.15,1.94-.61,4-1.37l7.78-2.9c1.28-.48,2.31-.9,3.1-1.26a7.26,7.26,0,0,0,1.38-.74.77.77,0,0,0,.25-.43,3.86,3.86,0,0,0-.21-1.28l-.29-1.12.89-.33.56,1.5.5,1.49c.28.84.49,1.47.65,1.9l2.08,5.3,1,2.53c.33.86.62,1.74.87,2.65a16.8,16.8,0,0,0-4.6,1l-.35-.95a18.32,18.32,0,0,0,2.54-1.12,12,12,0,0,0-.88-4.26c-.47-1.27-1-2.58-1.66-3.93-.88.34-1.77.67-2.67,1l-2.19.78L549.54,247c.28.94.55,1.76.81,2.47a15.47,15.47,0,0,0,1.64,3.65c.26.24.8.2,1.61-.1l.93-.34.35.94c-1.45.47-2.61.86-3.46,1.18s-1.94.76-3.14,1.28l-.35-.94.82-.31q1.37-.51,1.47-1.14a12.06,12.06,0,0,0-1.06-3.79C548.87,249.08,548.53,248.29,548.16,247.48Z" transform="translate(-271.48 -148.25)"/><path class="cls-2" d="M292.45,295.06l1-.07c.06,2,.12,3.5.18,4.42s.2,2.38.4,4.25l-1,.07-.07-1.08c-.06-.93-.29-1.47-.68-1.64a22.84,22.84,0,0,0-5.14.06l-6.16.41a21.29,21.29,0,0,0-4.67.66,3.81,3.81,0,0,0-2.11,1.95,7.33,7.33,0,0,0-.66,3.94,8.51,8.51,0,0,0,1.26,4.15,3.93,3.93,0,0,0,2.21,1.59,17.43,17.43,0,0,0,5.43.19l5.92-.39c2.75-.18,4.31-.4,4.69-.66s.53-.91.46-2l-.05-.77,1-.06c.06,2.05.11,3.35.15,3.91,0,.89.17,2,.33,3.34l-1,.07-.07-1c-.05-.78-.31-1.27-.77-1.46s-2-.2-4.71,0l-5.89.4a25.77,25.77,0,0,1-5.47,0,6.15,6.15,0,0,1-2.62-1.21,6.78,6.78,0,0,1-2-2.55,10.49,10.49,0,0,1-.92-3.87,12.72,12.72,0,0,1,.32-4.11,6.76,6.76,0,0,1,1.28-2.72,5,5,0,0,1,2-1.41,16.17,16.17,0,0,1,4.23-.68l3-.17,4.79-.31a23.84,23.84,0,0,0,4.95-.58c.35-.18.49-.72.43-1.59Z" transform="translate(-271.48 -148.25)"/><path class="cls-2" d="M292.6,323.13l-10.53,2.74q-3.6.93-5,1.43c-.71.26-1.12.48-1.23.68a2.84,2.84,0,0,0,0,1.47l.17.94-1,.25c-.2-1.06-.41-2-.63-2.86-.16-.58-.54-1.92-1.16-4l1-.25.27,1a1.9,1.9,0,0,0,.59,1.15,1.77,1.77,0,0,0,1.18.08c1.14-.18,2.67-.53,4.59-1l7.58-2q2.13-.56,4.2-1.14a3.12,3.12,0,0,0,1.16-.54,2.14,2.14,0,0,0,.44-.72,1.86,1.86,0,0,0,0-1.12l-.23-.89,1-.25c.25,1.24.45,2.18.62,2.82s.41,1.43.7,2.24c-1,1.26-2,2.47-2.9,3.61s-1.89,2.31-2.83,3.52l-5.12,6.57q-2.76,3.56-3.79,5.08l9.78-2.55a50.52,50.52,0,0,0,6.66-1.95c.34-.24.44-.85.29-1.85l-.17-1.1,1-.25c.33,1.56.6,2.76.82,3.62s.57,2,1,3.42l-1,.24-.29-1.1c-.23-.89-.68-1.32-1.34-1.29-.44,0-2.68.56-6.71,1.6l-6.87,1.79q-2.77.72-6.57,1.95a15.33,15.33,0,0,1-.13-2.39,1.92,1.92,0,0,1,.33-.72q1.46-2.08,3.29-4.43Z" transform="translate(-271.48 -148.25)"/><path class="cls-2" d="M282,350.12l.36.86c.35.85.77,1.27,1.28,1.26a39.33,39.33,0,0,0,6.38-2.32l4.94-2a46.25,46.25,0,0,0,6.33-2.86c.34-.31.35-.83.05-1.56l-.45-1.11.91-.38q.84,2.32,1.75,4.55c.51,1.24,1,2.35,1.49,3.33l-.92.38-.43-1.07c-.27-.65-.52-1-.76-1.12a2.23,2.23,0,0,0-1.37.22q-1.57.57-5.57,2.21l-5,2.07a42.51,42.51,0,0,0-6.14,2.79c-.32.32-.31.9,0,1.74l.38.91-.92.38c-.4-1.15-.87-2.4-1.41-3.72-.64-1.55-1.25-2.94-1.83-4.15Z" transform="translate(-271.48 -148.25)"/><path class="cls-2" d="M308.89,360.56c-1.43.66-2.92,1.4-4.44,2.24l-7.88,4.31a30,30,0,0,0-4.72,2.85c-.23.3-.11.88.36,1.73l.53,1-.87.47c-.77-1.57-1.45-2.89-2-3.95s-1.32-2.35-2.21-3.83l.87-.48.59,1.1c.32.57.6.9.86,1a1.69,1.69,0,0,0,1.12-.2q1.69-.75,4.24-2.15l7.89-4.31q2.34-1.28,4.23-2.43l-.72-1.33a20.89,20.89,0,0,0-2.09-3.44q-.35-.24-1.47.24l-1.95.84-.45-.82,1.66-.88c.66-.36,1.58-.93,2.77-1.72q3.75,7.08,4.42,8.32l4,7.14q-2.47,1-4.66,2.18l-.45-.82,1.74-1.12a3.21,3.21,0,0,0,1-.83,1,1,0,0,0-.14-.75c-.45-1-1-2.1-1.67-3.32Z" transform="translate(-271.48 -148.25)"/><path class="cls-2" d="M308.13,378.46,305,380.77l-1.78,1.34c-1.11.83-1.91,1.45-2.41,1.85q1.15,1.85,2.64,3.83a19.61,19.61,0,0,0,1.8,2.15,6.49,6.49,0,0,0,1.25,1c.89-.35,2-.84,3.23-1.46l.58.78c-2,1.17-3.32,2-3.93,2.44l-.55.45c-.77-.85-1.48-1.71-2.13-2.59l-1.36-1.9c-1.48-2.11-2.58-3.64-3.3-4.61s-1.64-2.14-2.85-3.63l.8-.59.27.37c.52.68.91,1.07,1.19,1.14a1.94,1.94,0,0,0,1.28-.4c.57-.33,1.76-1.18,3.57-2.53l6.93-5.16Q312,372,313,371.08a8.41,8.41,0,0,0,1.17-1.13.91.91,0,0,0,.13-.5,3.88,3.88,0,0,0-.56-1.17l-.58-1,.79-.59,1,1.28.9,1.29c.49.73.88,1.28,1.15,1.64l3.48,4.51,1.63,2.16c.55.73,1.08,1.5,1.58,2.3a18.16,18.16,0,0,0-4.28,2.41l-.6-.81a20,20,0,0,0,2.21-1.86,11.76,11.76,0,0,0-2-3.86q-1.22-1.62-2.7-3.3c-.78.6-1.58,1.18-2.39,1.75l-1.95,1.42-2.56,1.91c.53.82,1,1.54,1.46,2.14a15.38,15.38,0,0,0,2.6,3.05c.33.15.85-.05,1.57-.59l.82-.61.61.81c-1.31.89-2.35,1.62-3.11,2.18s-1.72,1.33-2.76,2.19l-.6-.8.73-.55c.81-.6,1.19-1.12,1.15-1.55a11.72,11.72,0,0,0-2.08-3.35C309.27,379.79,308.72,379.13,308.13,378.46Z" transform="translate(-271.48 -148.25)"/><path class="cls-2" d="M310.36,396.17q1.9-1.55,6.21-5.86l3.23-3.23q2-2,3.29-3.54a3.33,3.33,0,0,0,.78-1.16,2.84,2.84,0,0,0-.62-1.11l-.71-1,.7-.7c1.12,1.19,1.87,2,2.27,2.38l2.85,2.8L330.7,387a18.1,18.1,0,0,1,2.55,3.13,9,9,0,0,1,1.39,3.89,8.54,8.54,0,0,1-.56,4.17,11.42,11.42,0,0,1-2.66,3.89,12.13,12.13,0,0,1-8.61,3.84,11.74,11.74,0,0,1-8.69-3.78l-1.26-1.33c-1.21-1.31-2-2.14-2.32-2.48-.57-.56-1.33-1.24-2.3-2l.54-.53Zm2.33,2.22a23.57,23.57,0,0,0,2.27,2.72,8.83,8.83,0,0,0,6.16,3q3.92,0,7.64-3.72c2.17-2.16,3.28-4.36,3.33-6.58s-1-4.38-3.07-6.48a24.75,24.75,0,0,0-2.85-2.38,29.37,29.37,0,0,0-2.55,2.3l-7.29,7.28C315,395.83,313.77,397.13,312.69,398.39Z" transform="translate(-271.48 -148.25)"/><path class="cls-2" d="M356.82,408.74a18.53,18.53,0,0,0-2.73,3.4l-.86-.55.68-1.06a3.1,3.1,0,0,0,.64-1.57,3.69,3.69,0,0,0-.85-1.67,7.88,7.88,0,0,0-2.06-1.92,5.27,5.27,0,0,0-3.82-.95,4.3,4.3,0,0,0-2.92,2,4,4,0,0,0-.7,2.12,3.21,3.21,0,0,0,.55,1.91,17,17,0,0,0,3,2.76,14.12,14.12,0,0,1,3,2.94,3.84,3.84,0,0,1,.54,2.34,5.58,5.58,0,0,1-.93,2.64,7.17,7.17,0,0,1-5.06,3.22,9.41,9.41,0,0,1-6.82-1.69,14.1,14.1,0,0,1-2.24-1.81,18.11,18.11,0,0,1-2-2.34,34.93,34.93,0,0,0,2.84-3.94l.85.55-.43.66a7,7,0,0,0-.9,1.67,2.09,2.09,0,0,0,.17,1,5.8,5.8,0,0,0,1.13,1.84,8.88,8.88,0,0,0,1.86,1.6,6.21,6.21,0,0,0,4.4,1.17,4.62,4.62,0,0,0,3.22-2.16,4.23,4.23,0,0,0,.72-2.07,3.21,3.21,0,0,0-.52-1.88,11.82,11.82,0,0,0-2.55-2.42,15,15,0,0,1-3.37-3.19,4.19,4.19,0,0,1-.61-2.52,6.23,6.23,0,0,1,1.07-2.92,6.61,6.61,0,0,1,4.48-3.08,8.12,8.12,0,0,1,5.92,1.5,13.87,13.87,0,0,1,2.32,1.9A15.34,15.34,0,0,1,356.82,408.74Z" transform="translate(-271.48 -148.25)"/><path class="cls-2" d="M366.93,414.26c-.78,1.37-1.54,2.85-2.29,4.42l-3.88,8.09a29.28,29.28,0,0,0-2.17,5.08c0,.37.43.77,1.3,1.19l1,.48-.43.89c-1.55-.82-2.87-1.49-4-2s-2.45-1.13-4-1.81l.43-.89,1.12.54a2,2,0,0,0,1.27.3,1.7,1.7,0,0,0,.8-.81q.93-1.61,2.19-4.23l3.88-8.1c.77-1.6,1.44-3.09,2-4.45l-1.36-.65a21.61,21.61,0,0,0-3.71-1.58c-.28,0-.63.36-1.05,1.06l-1.1,1.81-.84-.4.83-1.68c.33-.68.74-1.68,1.25-3q7.17,3.56,8.45,4.17l7.44,3.44q-1.39,2.28-2.51,4.49l-.84-.4.76-1.93a3.2,3.2,0,0,0,.32-1.25c-.05-.17-.23-.34-.55-.53-.95-.55-2-1.12-3.29-1.72Z" transform="translate(-271.48 -148.25)"/><path class="cls-2" d="M379.51,433.43l-8.14-2.72-1.76,2.09a13.39,13.39,0,0,0-1.92,2.61.68.68,0,0,0,0,.55,2.21,2.21,0,0,0,.82.54l1.29.62-.31.94c-.88-.37-1.88-.75-3-1.12-1.35-.45-2.54-.82-3.59-1.09l.31-.94.43.13a3.07,3.07,0,0,0,1.35.21,2.31,2.31,0,0,0,.92-.72q1.71-1.81,3.59-4l7-8q2.79-3.18,3.91-4.67l1,.32,1.24,20a18.25,18.25,0,0,0,.24,2.48,1.6,1.6,0,0,0,.37.71,4.86,4.86,0,0,0,1.33.68l-.32.94c-1.2-.48-2.35-.9-3.45-1.27s-2.42-.77-4.16-1.27l.31-.94,1.43.37a2.36,2.36,0,0,0,.94.13.56.56,0,0,0,.35-.34,6.72,6.72,0,0,0,0-1.55Zm-7.21-3.76,7.09,2.36-.54-10.15Z" transform="translate(-271.48 -148.25)"/><path class="cls-2" d="M396.49,423.81q-.63,2.28-1.16,4.84l-1.81,8.79a28.88,28.88,0,0,0-.87,5.45c.08.36.6.64,1.55.84l1.09.22-.2,1c-1.7-.42-3.14-.75-4.34-1s-2.65-.5-4.35-.78l.2-1,1.22.25a2,2,0,0,0,1.31,0,1.73,1.73,0,0,0,.58-1c.34-1.18.71-2.72,1.1-4.62l1.81-8.81c.35-1.74.65-3.34.88-4.8l-1.48-.3a20.56,20.56,0,0,0-4-.63c-.27.06-.52.49-.76,1.28l-.63,2-.92-.19.41-1.83c.15-.74.31-1.81.48-3.22l9.2,2,8.06,1.54q-.81,2.55-1.35,5l-.91-.19.27-2.05a3.14,3.14,0,0,0,0-1.29,1,1,0,0,0-.66-.38c-1.05-.3-2.25-.59-3.61-.87Z" transform="translate(-271.48 -148.25)"/><path class="cls-2" d="M410.29,436l-.23,3.86-.11,2.22c-.08,1.38-.12,2.4-.13,3,1.44.2,3,.34,4.63.44a21.61,21.61,0,0,0,2.8,0,6.45,6.45,0,0,0,1.57-.32c.3-.91.61-2,.95-3.41l1,.05c-.4,2.29-.62,3.82-.67,4.58v.71c-1.14,0-2.26,0-3.35,0l-2.33-.18q-3.84-.33-5.65-.44c-1.15-.06-2.69-.12-4.61-.15l.06-1,.46,0a3.07,3.07,0,0,0,1.63-.17,1.91,1.91,0,0,0,.52-1.23c.11-.66.23-2.11.36-4.37l.5-8.62c.08-1.42.12-2.58.11-3.48a8.25,8.25,0,0,0-.12-1.62.86.86,0,0,0-.29-.42,3.89,3.89,0,0,0-1.26-.33L405,425l.06-1,1.6.09,1.57.15,2,.17,5.7.23,2.69.14a26.4,26.4,0,0,1,2.78.27,18.24,18.24,0,0,0-.9,4.82l-1-.06a19.58,19.58,0,0,0,0-2.88,11.71,11.71,0,0,0-4.25-.94c-1.35-.08-2.78-.1-4.26-.06-.05,1-.12,2-.2,2.95l-.17,2.41-.18,3.19c1,.13,1.83.21,2.58.26a15.62,15.62,0,0,0,4,0c.32-.16.5-.68.56-1.59l.05-1,1,.06c-.16,1.58-.27,2.84-.32,3.78s-.09,2.17-.1,3.53l-1-.06.06-.91c0-1-.1-1.63-.45-1.88s-1.66-.43-3.9-.56C412,436,411.18,436,410.29,436Z" transform="translate(-271.48 -148.25)"/><path class="cls-2" d="M436.44,425a19.49,19.49,0,0,0-.14,4.36l-1,.07-.09-1.25a3.08,3.08,0,0,0-.42-1.64,3.7,3.7,0,0,0-1.69-.82,7.71,7.71,0,0,0-2.8-.3,5.24,5.24,0,0,0-3.63,1.53,4.31,4.31,0,0,0-1.12,3.36,4.09,4.09,0,0,0,.71,2.12,3.18,3.18,0,0,0,1.59,1.19,16.88,16.88,0,0,0,4,.42,14.63,14.63,0,0,1,4.18.54,4,4,0,0,1,1.84,1.55,5.44,5.44,0,0,1,.83,2.67,7.1,7.1,0,0,1-2.09,5.61,9.47,9.47,0,0,1-6.47,2.75,14.05,14.05,0,0,1-2.89-.1,17.68,17.68,0,0,1-3-.7,34.17,34.17,0,0,0-.09-4.85l1-.07.05.78a6.93,6.93,0,0,0,.28,1.87,2,2,0,0,0,.75.72,5.92,5.92,0,0,0,2,.8,8.91,8.91,0,0,0,2.45.15A6.15,6.15,0,0,0,435,444a4.61,4.61,0,0,0,1.27-3.65,4,4,0,0,0-.67-2.09,3.16,3.16,0,0,0-1.54-1.2,12.16,12.16,0,0,0-3.49-.39,15.24,15.24,0,0,1-4.61-.53,4.16,4.16,0,0,1-2-1.65,6.2,6.2,0,0,1-.9-3,6.59,6.59,0,0,1,1.73-5.16,8.17,8.17,0,0,1,5.63-2.36,13.65,13.65,0,0,1,3,.13A14.8,14.8,0,0,1,436.44,425Z" transform="translate(-271.48 -148.25)"/><path class="cls-2" d="M448.07,433.69A10.85,10.85,0,0,1,456,419.46a10.84,10.84,0,0,1,8.55.62,10.6,10.6,0,0,1,4.94,6.7,12.18,12.18,0,0,1-.85,9.36,11.33,11.33,0,0,1-7.25,5.73,10.65,10.65,0,0,1-5.71.19,9.59,9.59,0,0,1-4.65-2.88A13.23,13.23,0,0,1,448.07,433.69Zm2.54-2.07a15.53,15.53,0,0,0,2.8,5.64,9,9,0,0,0,4,3,7.67,7.67,0,0,0,4.6.06,7.2,7.2,0,0,0,3.56-2.18,7.4,7.4,0,0,0,1.7-4,15.33,15.33,0,0,0-3.15-10.66,8,8,0,0,0-3.85-2.61,8.21,8.21,0,0,0-4.65.09A7.69,7.69,0,0,0,452,423.1a7.18,7.18,0,0,0-1.75,3.72A10.82,10.82,0,0,0,450.61,431.62Z" transform="translate(-271.48 -148.25)"/><path class="cls-2" d="M475.42,425.29l2.2,4.94a11.72,11.72,0,0,0,1.83,3.31q.53.36,1.74-.18l1-.43.41.91c-1.75.69-3.13,1.27-4.15,1.72s-2.35,1.09-4,1.88l-.4-.9,1.08-.49c.78-.34,1.19-.71,1.22-1.11a12.64,12.64,0,0,0-1.28-3.58l-4.83-10.85a11,11,0,0,0-1.8-3.26c-.33-.23-.91-.16-1.72.2l-1,.44-.4-.91c1.53-.6,2.9-1.17,4.1-1.7l7.72-3.63a22.55,22.55,0,0,1,2.36-.9,19.61,19.61,0,0,0,1.47,4.57l-.87.39a18.56,18.56,0,0,0-1.52-2.53,15.05,15.05,0,0,0-4,1.15,29.37,29.37,0,0,0-3.16,1.63c.45,1.29.9,2.45,1.35,3.47l2,4.57c.55-.21,1.09-.44,1.62-.67,1.35-.6,2.52-1.17,3.51-1.7a1.1,1.1,0,0,0,.59-.55,2.76,2.76,0,0,0-.19-1.25l-.35-1.15.85-.38c.71,1.78,1.18,2.93,1.4,3.42l1.52,3.39-.89.4-.49-1.11c-.4-.88-.79-1.35-1.2-1.4a13.09,13.09,0,0,0-3.76,1.33Z" transform="translate(-271.48 -148.25)"/><path class="cls-2" d="M504.68,412.26l-7.06,4.89.61,2.65a13.6,13.6,0,0,0,.94,3.1.68.68,0,0,0,.45.33,2.33,2.33,0,0,0,.92-.33l1.27-.67.56.81c-.82.48-1.72,1.06-2.69,1.74-1.18.81-2.18,1.55-3,2.22l-.56-.81.36-.27a3.13,3.13,0,0,0,1-.95,2.36,2.36,0,0,0,0-1.16q-.42-2.46-1-5.25l-2.23-10.39c-.58-2.76-1-4.73-1.39-5.92l.83-.58,16.71,11a18.05,18.05,0,0,0,2.13,1.3,1.42,1.42,0,0,0,.79.12,4.36,4.36,0,0,0,1.33-.64l.57.81q-1.65,1-3.09,2c-.89.61-2.06,1.47-3.51,2.56L508,418l1.15-.91a2.54,2.54,0,0,0,.67-.67.53.53,0,0,0-.07-.49,6.46,6.46,0,0,0-1.21-1Zm-7.34,3.51,6.14-4.25L495,405.87Z" transform="translate(-271.48 -148.25)"/><path class="cls-2" d="M519.44,383.55l3.83,10q2.16,5.61,4,9.62l-.42.42q-1.38-.58-7.33-2.82l-12-4.42,8.66,8.55c2,2,3.23,3.05,3.65,3.16s1-.22,1.81-1l.39-.39.7.7c-1,.92-1.83,1.7-2.43,2.31q-.66.66-2.55,2.73l-.7-.7.67-.68a2.06,2.06,0,0,0,.71-1.14,1.64,1.64,0,0,0-.49-1.05q-1.44-1.68-3.25-3.48l-6.34-6.26a40.46,40.46,0,0,0-3.13-2.9,1.17,1.17,0,0,0-.89-.27,2.77,2.77,0,0,0-1.26.88l-.55.56-.71-.7c1.27-1.17,2-1.92,2.37-2.24s.93-1,1.61-1.78q4.28,1.69,9.55,3.61l8.81,3.21L521,391.33q-1.61-4.26-4-10.09c.92-.83,1.55-1.42,1.91-1.78s1.12-1.19,2.14-2.32l.71.69-.69.69c-.61.62-.87,1.12-.78,1.48a10.69,10.69,0,0,0,2.25,2.64l8.19,8.08A16,16,0,0,0,534,393.6c.41.12,1-.15,1.6-.81l.6-.61.71.7q-1.53,1.38-2.85,2.73-1.47,1.47-3,3.17l-.71-.7.69-.7c.55-.55.75-1,.61-1.38a20.73,20.73,0,0,0-3.15-3.46Z" transform="translate(-271.48 -148.25)"/><path class="cls-2" d="M535,376.75l3.21,2.15,1.86,1.22c1.15.78,2,1.33,2.55,1.66q1.35-1.71,2.73-3.77a20.21,20.21,0,0,0,1.42-2.41,6.68,6.68,0,0,0,.52-1.51c-.63-.72-1.45-1.57-2.46-2.56l.55-.81Q548,373,549,373.62l.6.37c-.54,1-1.12,2-1.73,2.87l-1.33,1.91q-2.24,3.15-3.24,4.65c-.64,1-1.47,2.26-2.47,3.9l-.83-.56.26-.38a3,3,0,0,0,.68-1.5,2,2,0,0,0-.8-1.07q-.76-.65-3.58-2.52l-7.18-4.8c-1.18-.79-2.16-1.41-3-1.86a7.08,7.08,0,0,0-1.46-.72.88.88,0,0,0-.51,0,4,4,0,0,0-.92.92l-.74.88-.82-.55.89-1.33.92-1.28c.52-.71.91-1.26,1.16-1.63l3.09-4.79,1.48-2.25a27.13,27.13,0,0,1,1.65-2.26,18.58,18.58,0,0,0,3.69,3.22l-.56.84a22.8,22.8,0,0,0-2.48-1.47,11.69,11.69,0,0,0-3,3.19c-.75,1.13-1.49,2.35-2.21,3.65.82.54,1.64,1.09,2.44,1.66l2,1.37,2.65,1.78q.9-1.17,1.53-2.1a15.1,15.1,0,0,0,2-3.47c0-.35-.33-.78-1.08-1.28l-.85-.57.56-.84c1.27.94,2.31,1.67,3.09,2.19s1.83,1.18,3,1.88l-.56.84-.76-.51c-.84-.56-1.45-.75-1.84-.57a11.85,11.85,0,0,0-2.47,3.08C535.84,375.24,535.39,376,535,376.75Z" transform="translate(-271.48 -148.25)"/><path class="cls-2" d="M547,354.17q2.63-.39,6.2-1.11l4.76-.93a5.14,5.14,0,0,0,1.46-.44,1.06,1.06,0,0,0,.35-.41l.16-.35.9.42c-.41.71-.75,1.35-1,1.9a14.16,14.16,0,0,0-.65,1.67l-9,1.6q-2.5.47-5,1.15l-.42-.36c.28-.5.49-.88.6-1.13a5.31,5.31,0,0,0,.4-4.09A4.8,4.8,0,0,0,543,349.3a4.23,4.23,0,0,0-3.38-.26,4.79,4.79,0,0,0-2.48,2.64,8.66,8.66,0,0,0-.75,3.09c1.46.81,3.06,1.62,4.78,2.41l6.9,3.2a36,36,0,0,0,5.7,2.36q.66,0,1.23-1.23l.49-1.05.9.42c-.76,1.46-1.36,2.68-1.82,3.66q-.52,1.15-1.83,4.23l-.9-.42.46-1c.36-.77.4-1.31.1-1.62a37.1,37.1,0,0,0-5.53-2.82L540,359.71a26.59,26.59,0,0,0-5.08-2c-.42,0-.85.46-1.28,1.38l-.33.72-.9-.41c.84-1.64,1.46-2.9,1.87-3.78.27-.59.64-1.46,1.11-2.59.55-1.32,1-2.26,1.22-2.82a10.22,10.22,0,0,1,2.16-3.29,4.43,4.43,0,0,1,2.35-1.14,4.81,4.81,0,0,1,2.65.47,5.73,5.73,0,0,1,2.92,3A7.91,7.91,0,0,1,547,354.17Z" transform="translate(-271.48 -148.25)"/><path class="cls-2" d="M560.06,349.75l.3-.88c.3-.87.26-1.47-.13-1.8a41.44,41.44,0,0,0-6.33-2.46l-5-1.73a48,48,0,0,0-6.65-2c-.45,0-.81.39-1.07,1.14l-.39,1.13-.94-.32q.91-2.3,1.69-4.57c.43-1.27.79-2.43,1.07-3.48l.94.32-.37,1.09a2.09,2.09,0,0,0-.18,1.34c.11.23.51.47,1.18.73,1,.41,2.93,1.09,5.65,2l5.14,1.76a41,41,0,0,0,6.46,1.94c.45,0,.82-.47,1.12-1.33l.32-.93.94.32c-.47,1.13-.93,2.37-1.4,3.73-.54,1.58-1,3-1.36,4.32Z" transform="translate(-271.48 -148.25)"/><path class="cls-2" d="M552,320.6l-2.75-.53a9.64,9.64,0,0,0-3.14,5.19,8.4,8.4,0,0,0,1,6.84,9.71,9.71,0,0,0,6.16,4,11.73,11.73,0,0,0,5.55.07,9.23,9.23,0,0,0,4.47-2.51,8.92,8.92,0,0,0,2.46-4.3,15.82,15.82,0,0,0,.44-3.94,7.91,7.91,0,0,0-.79-3.2l.38-.22q.63.46,1.29.9a16.94,16.94,0,0,1,.53,3.72,14.05,14.05,0,0,1-.38,3.55,13.23,13.23,0,0,1-3,5.89,10.47,10.47,0,0,1-5,3.17,11.92,11.92,0,0,1-6.14.05,11.62,11.62,0,0,1-5.43-2.84,10.31,10.31,0,0,1-3-5.06,14.31,14.31,0,0,1,.17-6.88,19.74,19.74,0,0,1,1.84-4.59c.44-.85.79-1.55,1-2.09a15,15,0,0,0,4.44,1.86Z" transform="translate(-271.48 -148.25)"/><path class="cls-2" d="M562.72,304.54l-.64,8.56,2.46,1.19a13.18,13.18,0,0,0,3,1.22.65.65,0,0,0,.53-.14,2.13,2.13,0,0,0,.32-.93l.28-1.4,1,.07c-.14.94-.26,2-.35,3.19-.1,1.42-.16,2.67-.17,3.75l-1-.07v-.45a3,3,0,0,0-.13-1.36,2.22,2.22,0,0,0-.91-.71c-1.46-.81-3-1.65-4.73-2.51l-9.48-4.79q-3.76-1.92-5.48-2.64l.07-1,19-6.12a18.35,18.35,0,0,0,2.35-.84,1.62,1.62,0,0,0,.59-.53,4.36,4.36,0,0,0,.33-1.45l1,.07c-.17,1.28-.29,2.5-.38,3.66s-.15,2.53-.21,4.34l-1-.07,0-1.47a2.45,2.45,0,0,0-.11-.94.51.51,0,0,0-.42-.26,6.8,6.8,0,0,0-1.51.34Zm-1.88,7.92.55-7.46-9.71,3Z" transform="translate(-271.48 -148.25)"/></svg>